<svg id="svg" version="1.1" xmlns="http://www.w3.org/2000/svg" xmlns:xlink="http://www.w3.org/1999/xlink" width="400" height="582.5198637911465" viewBox="0, 0, 400,582.5198637911465"><g id="svgg"><path id="path0" d="M289.971 0.547 C 289.846 0.681,287.191 0.828,284.071 0.874 C 280.952 0.920,278.400 1.072,278.400 1.212 C 278.400 1.352,277.410 1.384,276.200 1.283 C 274.990 1.183,274.000 1.267,274.000 1.470 C 274.000 1.673,273.370 1.766,272.600 1.676 C 271.765 1.578,271.200 1.686,271.200 1.944 C 271.200 2.181,270.922 2.268,270.583 2.138 C 269.486 1.717,262.400 2.843,262.400 3.439 C 262.400 3.734,262.155 3.881,261.855 3.766 C 261.092 3.473,253.830 4.771,253.666 5.229 C 253.592 5.436,253.356 5.497,253.142 5.364 C 252.695 5.088,245.903 6.356,245.600 6.772 C 245.490 6.923,242.880 7.650,239.800 8.389 C 236.720 9.127,234.108 9.867,233.996 10.034 C 233.884 10.200,233.254 10.459,232.596 10.609 C 231.233 10.920,226.581 12.185,224.200 12.891 C 223.320 13.153,222.510 13.481,222.400 13.621 C 222.290 13.760,220.400 14.464,218.200 15.184 C 216.000 15.905,214.110 16.620,214.000 16.775 C 213.890 16.930,212.450 17.475,210.800 17.988 C 209.150 18.501,207.629 19.073,207.420 19.260 C 207.211 19.447,206.716 19.600,206.320 19.600 C 205.924 19.600,205.600 19.756,205.600 19.946 C 205.600 20.136,204.745 20.599,203.700 20.975 C 200.448 22.144,198.800 22.909,198.800 23.248 C 198.800 23.428,198.512 23.464,198.160 23.329 C 197.807 23.194,197.402 23.272,197.260 23.503 C 196.971 23.970,192.563 26.000,191.839 26.000 C 190.122 26.000,189.708 29.206,191.344 29.834 C 192.061 30.109,202.380 27.411,202.800 26.838 C 202.910 26.689,204.845 26.057,207.100 25.434 C 209.355 24.812,211.200 24.161,211.200 23.989 C 211.200 23.816,211.554 23.767,211.986 23.880 C 212.420 23.994,213.059 23.798,213.414 23.443 C 213.768 23.089,214.317 22.800,214.634 22.800 C 215.510 22.800,222.972 20.697,223.200 20.386 C 223.417 20.090,234.802 17.200,235.752 17.200 C 236.072 17.200,236.393 17.039,236.467 16.841 C 236.600 16.483,247.367 14.000,248.786 14.000 C 249.197 14.000,249.593 13.824,249.667 13.609 C 249.740 13.394,251.195 13.002,252.900 12.738 C 254.605 12.473,256.000 12.098,256.000 11.905 C 256.000 11.711,256.175 11.661,256.389 11.793 C 256.853 12.080,263.600 11.185,263.600 10.837 C 263.600 10.703,264.410 10.659,265.400 10.737 C 266.928 10.859,267.205 10.769,267.232 10.140 C 267.250 9.719,267.350 9.616,267.465 9.900 C 267.729 10.556,270.000 10.556,270.000 9.900 C 270.000 9.548,270.592 9.441,272.000 9.539 C 273.280 9.627,274.000 9.518,274.000 9.234 C 274.000 8.941,274.542 8.877,275.600 9.046 C 276.664 9.217,277.200 9.153,277.200 8.855 C 277.200 8.541,278.263 8.484,280.800 8.664 C 283.527 8.858,284.400 8.800,284.400 8.426 C 284.400 8.047,285.423 7.999,288.800 8.218 C 291.969 8.423,293.200 8.377,293.200 8.051 C 293.200 7.752,294.342 7.600,296.600 7.600 C 298.874 7.600,300.000 7.751,300.000 8.055 C 300.000 8.381,300.964 8.432,303.400 8.234 C 305.884 8.033,306.800 8.084,306.800 8.426 C 306.800 8.751,307.589 8.843,309.400 8.728 C 310.830 8.637,312.000 8.725,312.000 8.925 C 312.000 9.124,312.630 9.214,313.400 9.124 C 314.170 9.034,314.800 9.104,314.800 9.280 C 314.800 9.456,315.520 9.600,316.400 9.600 C 317.280 9.600,318.000 9.757,318.000 9.948 C 318.000 10.140,318.945 10.419,320.100 10.568 C 323.395 10.992,331.295 12.823,332.400 13.418 C 332.950 13.715,334.982 14.501,336.915 15.165 C 338.849 15.830,340.670 16.613,340.963 16.906 C 341.256 17.198,342.604 17.878,343.959 18.417 C 345.314 18.955,347.003 19.891,347.711 20.497 C 348.420 21.102,349.206 21.599,349.458 21.599 C 349.709 21.600,350.493 22.140,351.200 22.800 C 351.907 23.460,352.610 24.000,352.763 24.000 C 353.258 24.000,360.163 30.099,361.333 31.570 C 361.957 32.353,362.587 33.085,362.733 33.197 C 363.336 33.656,365.600 36.783,365.600 37.157 C 365.600 37.379,365.850 37.704,366.156 37.880 C 366.462 38.056,367.292 39.190,368.000 40.400 C 368.708 41.610,369.538 42.744,369.844 42.920 C 370.150 43.096,370.400 43.430,370.400 43.663 C 370.400 44.305,372.873 49.381,373.261 49.533 C 373.447 49.607,373.600 49.842,373.600 50.055 C 373.600 50.269,373.947 51.205,374.371 52.136 C 374.795 53.066,375.266 54.362,375.419 55.014 C 375.571 55.666,375.915 56.380,376.184 56.600 C 376.452 56.820,376.778 57.450,376.908 58.000 C 377.038 58.550,377.349 59.720,377.599 60.600 C 378.248 62.887,378.779 65.172,379.058 66.878 C 379.191 67.691,379.592 68.681,379.950 69.078 C 380.307 69.475,380.618 70.340,380.639 71.000 C 380.687 72.483,381.561 77.983,381.878 78.800 C 382.006 79.130,382.072 79.985,382.025 80.700 C 381.977 81.415,382.089 82.000,382.272 82.000 C 382.456 82.000,382.541 82.810,382.463 83.800 C 382.348 85.243,382.446 85.600,382.960 85.600 C 383.312 85.600,383.600 85.870,383.600 86.200 C 383.600 86.530,383.420 86.800,383.200 86.800 C 382.980 86.800,382.800 87.430,382.800 88.200 C 382.800 89.128,382.987 89.600,383.356 89.600 C 383.803 89.600,383.870 90.263,383.699 93.000 C 383.582 94.881,383.646 96.400,383.844 96.400 C 384.044 96.400,384.200 101.314,384.200 107.600 C 384.200 113.904,384.044 118.800,383.843 118.800 C 383.645 118.800,383.583 120.225,383.705 122.000 C 383.882 124.586,383.817 125.200,383.362 125.200 C 383.004 125.200,382.800 125.636,382.800 126.400 C 382.800 127.060,382.980 127.600,383.200 127.600 C 383.420 127.600,383.600 127.960,383.600 128.400 C 383.600 128.867,383.333 129.200,382.960 129.200 C 382.446 129.200,382.348 129.557,382.463 131.000 C 382.541 131.990,382.446 132.800,382.250 132.800 C 382.055 132.800,381.991 133.520,382.109 134.400 C 382.227 135.280,382.184 136.000,382.013 136.000 C 381.843 136.000,381.589 136.945,381.450 138.100 C 380.979 141.998,380.325 145.395,379.890 146.200 C 379.407 147.093,378.733 150.361,378.653 152.200 C 378.624 152.860,378.488 153.490,378.350 153.600 C 378.117 153.786,377.424 156.366,376.926 158.900 C 376.807 159.505,376.564 160.000,376.387 160.000 C 376.210 160.000,375.882 160.765,375.658 161.700 C 375.434 162.635,375.059 164.075,374.825 164.900 C 374.591 165.725,374.233 167.056,374.029 167.859 C 373.825 168.661,373.485 169.426,373.273 169.559 C 373.062 169.691,372.658 170.610,372.377 171.600 C 372.095 172.590,371.715 173.571,371.533 173.780 C 371.350 173.989,371.200 174.563,371.200 175.056 C 371.200 175.549,371.020 176.064,370.800 176.200 C 370.580 176.336,370.400 176.784,370.400 177.195 C 370.400 177.606,370.167 178.181,369.883 178.471 C 369.599 178.762,369.131 179.630,368.843 180.400 C 368.099 182.390,367.561 183.693,367.153 184.495 C 366.959 184.877,366.800 185.462,366.800 185.795 C 366.800 186.128,366.614 186.400,366.387 186.400 C 366.161 186.400,365.867 186.715,365.735 187.100 C 365.072 189.033,363.382 192.635,363.016 192.894 C 362.752 193.080,362.747 193.192,363.000 193.200 C 363.251 193.208,363.244 193.322,362.981 193.506 C 362.491 193.850,360.400 198.074,360.400 198.720 C 360.400 198.962,360.174 199.304,359.898 199.480 C 359.622 199.656,358.778 201.060,358.022 202.600 C 357.267 204.140,356.518 205.491,356.359 205.603 C 356.199 205.714,355.402 207.064,354.587 208.603 C 353.773 210.141,352.991 211.490,352.849 211.600 C 352.456 211.906,350.577 214.910,350.285 215.700 C 350.142 216.085,349.861 216.400,349.661 216.400 C 349.461 216.400,349.061 216.985,348.772 217.700 C 348.175 219.177,346.531 221.833,345.520 222.954 C 345.146 223.369,344.571 224.274,344.243 224.965 C 343.915 225.656,343.269 226.667,342.806 227.211 C 342.343 227.755,340.805 230.000,339.388 232.200 C 337.971 234.400,336.452 236.650,336.014 237.200 C 335.575 237.750,334.731 239.177,334.137 240.371 C 333.543 241.566,332.718 242.882,332.304 243.296 C 331.889 243.711,331.222 244.815,330.821 245.750 C 330.421 246.685,329.843 247.709,329.538 248.025 C 329.233 248.341,328.391 249.815,327.667 251.300 C 326.942 252.785,326.181 254.000,325.975 254.000 C 325.769 254.000,325.600 254.175,325.600 254.390 C 325.600 254.604,325.060 255.959,324.400 257.400 C 323.740 258.841,323.200 260.181,323.200 260.377 C 323.200 260.573,323.001 260.800,322.758 260.881 C 322.515 260.962,322.083 261.652,321.798 262.414 C 321.513 263.176,320.875 264.880,320.381 266.200 C 319.886 267.520,319.358 268.690,319.207 268.800 C 318.832 269.072,316.800 274.896,316.800 275.699 C 316.800 276.053,316.542 276.601,316.226 276.916 C 315.708 277.435,312.800 288.318,312.800 289.741 C 312.800 290.067,312.630 290.393,312.422 290.467 C 311.887 290.655,310.293 301.944,310.242 305.900 C 310.219 307.715,310.065 309.200,309.900 309.200 C 309.735 309.200,309.600 310.370,309.600 311.800 C 309.600 313.267,309.426 314.400,309.200 314.400 C 308.978 314.400,308.800 315.467,308.800 316.800 C 308.800 318.133,308.978 319.200,309.200 319.200 C 309.422 319.200,309.600 320.267,309.600 321.600 C 309.600 323.566,309.480 324.000,308.938 324.000 C 308.338 324.000,308.299 324.689,308.510 331.400 C 308.672 336.542,308.612 338.800,308.315 338.800 C 308.013 338.800,307.972 341.658,308.175 348.400 C 308.394 355.649,308.350 358.000,307.995 358.000 C 307.657 358.000,307.564 359.126,307.663 362.000 C 307.738 364.201,307.639 366.001,307.443 366.000 C 307.245 366.000,307.183 367.418,307.304 369.180 C 307.426 370.971,307.361 372.413,307.154 372.482 C 306.952 372.549,306.744 374.898,306.693 377.702 C 306.630 381.143,306.454 382.799,306.152 382.799 C 305.603 382.800,305.037 388.610,305.432 390.184 C 305.600 390.852,305.533 391.394,305.262 391.562 C 305.002 391.722,304.771 393.331,304.708 395.419 C 304.649 397.388,304.469 399.098,304.308 399.219 C 304.148 399.339,303.968 401.002,303.908 402.915 C 303.849 404.827,303.686 406.394,303.547 406.396 C 303.408 406.398,303.164 407.795,303.005 409.500 C 302.846 411.205,302.556 412.699,302.362 412.821 C 302.167 412.943,301.961 414.426,301.904 416.117 C 301.847 417.808,301.702 419.194,301.582 419.196 C 301.462 419.198,300.930 422.260,300.400 426.000 C 299.870 429.740,299.314 432.800,299.164 432.800 C 299.015 432.800,298.768 433.835,298.615 435.100 C 298.463 436.365,298.180 438.120,297.987 439.000 C 297.793 439.880,297.255 442.760,296.790 445.400 C 296.325 448.040,295.765 450.532,295.545 450.938 C 295.325 451.344,294.978 452.604,294.774 453.738 C 294.569 454.872,294.240 456.520,294.041 457.400 C 293.843 458.280,293.479 459.990,293.233 461.200 C 292.986 462.410,292.608 463.460,292.392 463.533 C 292.176 463.607,292.001 463.967,292.003 464.333 C 292.008 465.346,289.465 475.371,289.144 475.604 C 288.990 475.716,288.740 476.346,288.590 477.004 C 288.000 479.582,285.871 486.611,285.622 486.800 C 285.360 486.999,283.827 491.768,283.191 494.359 C 283.008 495.106,282.696 495.826,282.499 495.959 C 282.302 496.091,281.451 498.180,280.607 500.600 C 279.764 503.020,278.958 505.090,278.816 505.200 C 278.466 505.472,277.461 507.758,276.574 510.300 C 276.172 511.455,275.725 512.400,275.582 512.400 C 275.439 512.400,275.000 513.165,274.606 514.100 C 273.060 517.776,272.671 518.608,272.409 518.800 C 272.051 519.063,269.200 525.118,269.200 525.615 C 269.200 525.827,269.052 526.000,268.871 526.000 C 268.691 526.000,268.141 526.889,267.649 527.977 C 267.158 529.064,266.345 530.559,265.843 531.298 C 265.341 532.038,264.336 533.759,263.609 535.122 C 262.883 536.485,262.134 537.600,261.944 537.600 C 261.755 537.600,261.600 537.793,261.600 538.028 C 261.600 538.263,261.060 539.241,260.400 540.200 C 259.740 541.159,259.200 542.036,259.200 542.147 C 259.200 542.259,258.660 542.942,258.000 543.664 C 257.340 544.387,256.800 545.172,256.800 545.409 C 256.800 545.645,256.084 546.640,255.210 547.619 C 254.335 548.599,253.070 550.030,252.398 550.800 C 249.393 554.243,248.861 554.800,248.578 554.800 C 248.412 554.800,247.660 555.520,246.907 556.400 C 246.154 557.280,245.288 558.000,244.983 558.000 C 244.678 558.000,244.255 558.323,244.044 558.718 C 243.833 559.113,242.656 559.961,241.430 560.602 C 240.203 561.244,239.200 561.894,239.200 562.047 C 239.200 562.343,233.197 564.945,233.016 564.728 C 232.642 564.280,232.507 550.000,232.877 550.000 C 233.165 550.000,233.214 549.089,233.027 547.200 C 232.827 545.163,232.880 544.400,233.222 544.400 C 233.552 544.400,233.644 543.621,233.528 541.800 C 233.434 540.332,233.525 539.200,233.737 539.200 C 233.952 539.200,234.015 538.263,233.885 537.000 C 233.742 535.617,233.810 534.800,234.068 534.800 C 234.311 534.800,234.421 533.988,234.339 532.800 C 234.262 531.700,234.358 530.800,234.552 530.800 C 234.746 530.800,234.813 529.990,234.701 529.000 C 234.548 527.640,234.633 527.200,235.049 527.200 C 235.763 527.200,235.809 524.151,235.100 523.865 C 234.820 523.752,234.931 523.649,235.353 523.632 C 235.995 523.605,236.074 523.368,235.893 522.020 C 235.777 521.151,235.844 520.385,236.043 520.319 C 236.241 520.253,236.448 518.849,236.502 517.199 C 236.556 515.550,236.744 514.094,236.920 513.964 C 237.097 513.834,237.277 512.440,237.320 510.865 C 237.364 509.291,237.554 508.002,237.742 508.002 C 237.930 508.001,238.015 507.280,237.931 506.400 C 237.848 505.520,237.932 504.800,238.120 504.800 C 238.307 504.800,238.403 504.253,238.333 503.584 C 238.263 502.915,238.429 502.229,238.703 502.060 C 239.006 501.873,239.240 500.662,239.301 498.976 C 239.355 497.449,239.528 496.104,239.684 495.986 C 239.841 495.868,240.021 494.518,240.084 492.986 C 240.148 491.454,240.333 490.101,240.496 489.979 C 240.659 489.857,240.839 488.374,240.896 486.683 C 240.953 484.992,241.153 483.606,241.340 483.604 C 241.527 483.602,241.616 482.790,241.537 481.800 C 241.438 480.545,241.547 480.000,241.897 480.000 C 242.492 480.000,242.579 478.158,242.000 477.800 C 241.364 477.407,241.537 476.400,242.240 476.400 C 242.754 476.400,242.852 476.043,242.737 474.600 C 242.659 473.610,242.754 472.800,242.949 472.800 C 243.144 472.800,243.213 471.990,243.101 471.000 C 242.978 469.909,243.059 469.200,243.307 469.200 C 243.568 469.200,243.628 468.262,243.473 466.600 C 243.307 464.826,243.370 464.000,243.671 464.000 C 243.966 464.000,244.037 463.273,243.885 461.800 C 243.736 460.362,243.806 459.600,244.086 459.600 C 244.380 459.600,244.428 458.348,244.239 455.600 C 244.087 453.400,244.107 451.600,244.282 451.600 C 244.457 451.600,244.600 445.660,244.600 438.400 C 244.600 431.140,244.452 425.200,244.271 425.200 C 244.090 425.200,244.070 423.130,244.225 420.600 C 244.420 417.439,244.376 416.000,244.083 416.000 C 243.807 416.000,243.737 415.230,243.885 413.800 C 244.030 412.392,243.961 411.600,243.694 411.600 C 243.425 411.600,243.354 410.741,243.493 409.200 C 243.630 407.699,243.559 406.800,243.305 406.800 C 243.060 406.800,242.979 406.085,243.101 405.000 C 243.213 404.010,243.141 403.200,242.941 403.200 C 242.742 403.200,242.648 402.480,242.731 401.600 C 242.859 400.262,242.763 399.995,242.142 399.968 C 241.721 399.951,241.616 399.850,241.900 399.735 C 242.495 399.495,242.573 397.354,242.000 397.000 C 241.780 396.864,241.600 396.313,241.600 395.776 C 241.600 395.239,241.437 394.800,241.237 394.800 C 241.038 394.800,240.959 394.477,241.062 394.083 C 241.290 393.211,239.323 382.334,238.880 382.022 C 238.707 381.900,237.955 379.370,237.208 376.400 C 236.462 373.430,235.435 370.164,234.926 369.142 C 234.417 368.120,234.000 366.993,234.000 366.636 C 234.000 366.280,233.838 365.677,233.639 365.295 C 233.440 364.913,233.055 363.844,232.782 362.921 C 232.509 361.997,232.041 361.148,231.743 361.033 C 231.444 360.919,231.199 360.594,231.198 360.313 C 231.195 359.433,229.270 355.023,228.824 354.875 C 228.591 354.797,228.397 354.523,228.393 354.267 C 228.384 353.725,225.695 348.324,225.278 348.011 C 224.833 347.677,222.400 343.587,222.400 343.173 C 222.400 342.968,222.222 342.800,222.003 342.800 C 221.785 342.800,221.046 341.806,220.360 340.591 C 219.674 339.376,218.773 338.200,218.357 337.977 C 217.941 337.754,217.601 337.353,217.601 337.086 C 217.602 336.819,216.996 335.970,216.254 335.200 C 206.166 324.725,204.800 323.557,204.800 325.400 C 204.800 325.730,204.620 326.000,204.400 326.000 C 203.570 326.000,204.045 327.769,205.142 328.764 C 205.770 329.334,206.355 330.000,206.442 330.244 C 206.618 330.737,209.250 334.000,210.800 335.645 C 211.818 336.726,212.261 337.391,213.669 339.955 C 214.106 340.750,214.685 341.580,214.956 341.800 C 215.227 342.020,216.055 343.460,216.795 345.000 C 217.536 346.540,218.271 347.890,218.429 348.000 C 218.587 348.110,219.307 349.550,220.029 351.200 C 220.750 352.850,221.557 354.470,221.821 354.800 C 222.084 355.130,222.888 357.110,223.607 359.200 C 224.326 361.290,225.032 363.090,225.176 363.200 C 225.320 363.310,226.039 365.470,226.773 368.000 C 227.507 370.530,228.230 372.690,228.380 372.800 C 228.658 373.003,230.585 381.597,231.048 384.700 C 231.188 385.635,231.434 386.400,231.596 386.400 C 231.757 386.400,231.799 386.869,231.690 387.443 C 231.580 388.016,231.672 388.601,231.894 388.743 C 232.115 388.884,232.610 391.520,232.992 394.600 C 233.374 397.680,233.814 400.249,233.969 400.308 C 234.123 400.368,234.172 401.493,234.077 402.808 C 233.965 404.352,234.056 405.200,234.333 405.200 C 234.613 405.200,234.680 405.895,234.525 407.200 C 234.326 408.883,234.393 409.200,234.944 409.200 C 235.377 409.200,235.600 409.540,235.600 410.200 C 235.600 410.750,235.420 411.200,235.200 411.200 C 234.971 411.200,234.800 412.400,234.800 414.000 C 234.800 416.072,234.939 416.800,235.335 416.800 C 235.771 416.800,235.870 419.106,235.865 429.200 C 235.860 439.215,235.757 441.600,235.329 441.600 C 234.685 441.600,234.563 447.806,235.200 448.200 C 235.932 448.652,235.691 450.810,234.941 450.522 C 234.355 450.297,234.313 450.544,234.561 452.735 C 234.757 454.471,234.705 455.200,234.386 455.200 C 234.080 455.200,233.976 456.049,234.066 457.801 C 234.140 459.231,234.040 460.401,233.845 460.401 C 233.650 460.400,233.606 461.390,233.748 462.600 C 233.924 464.096,233.865 464.800,233.565 464.800 C 233.283 464.800,233.173 465.523,233.261 466.800 C 233.338 467.900,233.246 468.800,233.058 468.800 C 232.870 468.800,232.785 469.520,232.869 470.400 C 232.952 471.280,232.881 472.000,232.711 472.000 C 232.540 472.000,232.400 472.810,232.400 473.800 C 232.400 474.852,232.216 475.600,231.956 475.600 C 231.685 475.600,231.576 476.143,231.676 477.000 C 231.766 477.770,231.677 478.400,231.479 478.400 C 231.281 478.400,231.184 479.210,231.263 480.199 C 231.341 481.189,231.288 482.044,231.144 482.099 C 230.999 482.155,230.403 485.525,229.819 489.590 C 229.235 493.654,228.614 497.074,228.439 497.190 C 228.264 497.305,228.004 498.210,227.859 499.200 C 227.234 503.496,225.414 513.017,225.183 513.200 C 225.044 513.310,224.332 516.280,223.600 519.800 C 222.868 523.320,222.133 526.292,221.966 526.404 C 221.664 526.608,219.522 536.774,218.975 540.600 C 218.818 541.700,218.545 542.694,218.368 542.809 C 217.886 543.123,217.163 549.598,217.444 551.094 C 217.579 551.812,217.521 552.400,217.315 552.400 C 217.096 552.400,216.952 555.538,216.966 560.000 C 216.979 564.180,217.138 567.600,217.319 567.600 C 217.499 567.600,217.526 567.797,217.377 568.037 C 217.052 568.563,217.981 573.200,218.411 573.200 C 218.577 573.200,219.017 573.965,219.388 574.900 C 220.146 576.807,223.058 579.868,225.431 581.250 C 227.203 582.283,238.820 582.675,240.839 581.769 C 243.788 580.448,245.887 579.329,246.554 578.724 C 246.969 578.348,247.869 577.770,248.554 577.441 C 249.239 577.112,250.430 576.283,251.200 575.598 C 251.970 574.914,253.770 573.329,255.200 572.077 C 256.630 570.825,258.610 568.967,259.600 567.949 C 263.348 564.096,267.723 559.281,268.119 558.574 C 268.345 558.170,269.041 557.409,269.665 556.884 C 270.289 556.359,270.800 555.719,270.800 555.462 C 270.800 555.043,271.935 553.634,274.980 550.275 C 275.541 549.656,276.000 549.068,276.000 548.969 C 276.000 548.598,278.924 544.400,279.182 544.400 C 279.329 544.400,280.058 543.320,280.800 542.000 C 281.542 540.680,282.283 539.600,282.446 539.600 C 282.608 539.600,282.997 539.105,283.310 538.500 C 284.559 536.086,285.428 534.614,286.000 533.946 C 286.330 533.560,287.043 532.379,287.585 531.322 C 288.127 530.265,288.953 528.860,289.421 528.200 C 289.889 527.540,290.681 526.100,291.180 525.000 C 291.680 523.900,292.339 522.856,292.644 522.680 C 292.950 522.504,293.200 522.140,293.200 521.870 C 293.200 521.600,293.734 520.304,294.387 518.990 C 295.041 517.675,295.581 516.375,295.587 516.100 C 295.594 515.825,295.746 515.600,295.925 515.600 C 296.233 515.600,297.641 512.688,298.488 510.300 C 298.703 509.695,299.007 509.200,299.165 509.200 C 299.323 509.200,299.878 507.985,300.398 506.500 C 300.918 505.015,301.739 503.080,302.221 502.200 C 302.703 501.320,303.695 498.890,304.426 496.800 C 305.156 494.710,305.989 492.762,306.277 492.471 C 306.564 492.181,306.800 491.677,306.800 491.353 C 306.800 490.558,308.844 484.252,309.183 484.000 C 309.457 483.797,310.196 481.405,311.653 476.005 C 312.097 474.357,312.586 472.917,312.740 472.805 C 312.893 472.692,313.631 470.179,314.380 467.220 C 315.129 464.261,315.963 461.381,316.234 460.820 C 316.505 460.259,317.217 457.460,317.816 454.600 C 318.415 451.740,319.062 449.340,319.253 449.267 C 319.444 449.193,319.600 448.802,319.600 448.397 C 319.600 447.992,319.947 446.072,320.372 444.130 C 320.796 442.189,321.454 438.890,321.834 436.800 C 322.214 434.710,322.643 432.910,322.789 432.800 C 323.057 432.597,325.629 417.188,325.610 415.900 C 325.605 415.515,325.800 415.200,326.045 415.200 C 326.312 415.200,326.421 414.722,326.316 414.010 C 326.220 413.355,326.261 412.770,326.407 412.710 C 326.797 412.548,328.932 396.521,328.658 395.807 C 328.530 395.473,328.599 395.200,328.813 395.200 C 329.026 395.200,329.200 394.570,329.200 393.800 C 329.200 393.030,329.380 392.400,329.600 392.400 C 329.820 392.400,330.000 391.680,330.000 390.800 C 330.000 389.920,329.820 389.200,329.600 389.200 C 329.380 389.200,329.200 389.026,329.200 388.813 C 329.200 388.599,329.446 388.519,329.746 388.635 C 330.359 388.870,331.063 383.151,330.577 381.885 C 330.419 381.473,330.506 381.200,330.794 381.200 C 331.126 381.200,331.232 380.520,331.137 378.999 C 331.062 377.789,331.160 376.799,331.355 376.799 C 331.550 376.800,331.596 375.825,331.455 374.633 C 331.290 373.225,331.352 372.416,331.632 372.323 C 331.906 372.231,332.088 370.255,332.131 366.890 C 332.182 362.961,332.329 361.600,332.700 361.600 C 333.314 361.600,333.407 356.975,332.800 356.600 C 332.173 356.213,332.331 355.600,333.058 355.600 C 333.635 355.600,333.683 355.210,333.448 352.400 C 333.257 350.102,333.311 349.200,333.641 349.200 C 333.965 349.200,334.048 348.197,333.922 345.800 C 333.817 343.795,333.899 342.400,334.123 342.400 C 334.356 342.400,334.394 341.004,334.222 338.800 C 334.013 336.140,334.063 335.200,334.412 335.200 C 334.748 335.200,334.843 334.276,334.739 332.000 C 334.659 330.240,334.755 328.800,334.952 328.800 C 335.156 328.800,335.192 327.339,335.034 325.400 C 334.833 322.927,334.885 322.000,335.223 322.000 C 335.548 322.000,335.642 321.098,335.536 319.000 C 335.423 316.763,335.514 316.000,335.892 316.000 C 336.505 316.000,336.601 312.971,336.000 312.600 C 335.332 312.187,335.524 310.400,336.236 310.400 C 336.761 310.400,336.848 309.983,336.736 307.999 C 336.661 306.679,336.752 305.599,336.939 305.599 C 337.125 305.600,337.215 304.700,337.139 303.600 C 337.062 302.500,337.135 301.600,337.300 301.600 C 337.465 301.600,337.599 301.105,337.599 300.500 C 337.597 298.875,339.252 289.433,339.580 289.200 C 339.735 289.090,340.177 287.650,340.562 286.000 C 341.475 282.091,342.509 278.652,342.847 278.400 C 342.995 278.290,343.593 276.760,344.176 275.000 C 344.759 273.240,345.752 270.720,346.384 269.400 C 348.148 265.714,349.200 263.154,349.200 262.549 C 349.200 262.247,349.356 262.000,349.546 262.000 C 349.736 262.000,350.494 260.605,351.229 258.900 C 351.964 257.195,352.723 255.690,352.915 255.557 C 353.107 255.423,353.925 254.042,354.732 252.489 C 358.070 246.069,359.318 243.789,359.600 243.600 C 359.764 243.490,360.569 242.065,361.388 240.432 C 362.208 238.800,363.102 237.241,363.375 236.968 C 363.648 236.695,364.381 235.421,365.004 234.136 C 365.627 232.851,366.271 231.708,366.436 231.596 C 366.602 231.484,367.225 230.404,367.822 229.196 C 368.419 227.988,369.138 226.730,369.419 226.400 C 369.700 226.070,370.583 224.495,371.381 222.900 C 372.180 221.305,373.005 220.000,373.216 220.000 C 373.427 220.000,373.600 219.801,373.600 219.557 C 373.600 218.822,376.064 213.898,376.858 213.045 C 377.266 212.607,377.600 212.047,377.600 211.800 C 377.600 211.553,377.960 210.605,378.400 209.694 C 378.840 208.784,379.200 207.863,379.200 207.648 C 379.200 207.433,379.426 207.019,379.701 206.729 C 380.239 206.162,381.799 202.781,382.206 201.302 C 382.341 200.809,382.674 200.179,382.945 199.902 C 383.216 199.626,383.847 198.320,384.348 197.000 C 384.849 195.680,385.691 193.692,386.218 192.582 C 386.746 191.471,387.754 188.771,388.458 186.582 C 389.162 184.392,389.867 182.510,390.026 182.400 C 390.304 182.208,392.036 176.681,392.594 174.204 C 392.742 173.546,393.010 172.916,393.190 172.804 C 393.369 172.692,394.197 169.630,395.029 166.000 C 395.861 162.370,396.655 159.310,396.794 159.200 C 397.348 158.762,399.379 144.850,399.102 143.398 C 398.997 142.849,399.034 142.400,399.184 142.400 C 399.555 142.400,399.793 132.406,399.792 116.800 C 399.791 101.698,399.574 92.000,399.237 92.001 C 399.107 92.001,399.061 90.921,399.136 89.601 C 399.221 88.095,399.113 87.200,398.848 87.200 C 398.615 87.200,398.518 86.959,398.631 86.664 C 398.906 85.948,397.246 74.678,396.827 74.410 C 396.646 74.294,396.372 73.390,396.218 72.400 C 395.791 69.657,393.567 60.653,393.205 60.200 C 393.029 59.980,392.318 57.955,391.625 55.700 C 390.933 53.445,390.193 51.600,389.983 51.600 C 389.772 51.600,389.600 51.336,389.600 51.014 C 389.600 50.006,384.349 38.836,383.408 37.841 C 383.178 37.598,382.769 36.950,382.498 36.400 C 381.504 34.384,380.569 32.947,379.497 31.791 C 378.894 31.141,378.400 30.466,378.400 30.293 C 378.400 29.525,367.027 18.000,366.270 18.000 C 366.028 18.000,365.373 17.539,364.815 16.975 C 363.479 15.627,360.074 13.436,356.600 11.689 C 355.060 10.915,353.710 10.173,353.600 10.041 C 352.927 9.231,346.965 7.051,346.392 7.405 C 346.176 7.538,346.000 7.377,346.000 7.048 C 346.000 6.458,342.467 5.216,337.200 3.954 C 335.990 3.663,334.907 3.298,334.794 3.142 C 334.481 2.709,327.177 1.523,326.477 1.792 C 326.140 1.921,325.743 1.831,325.595 1.592 C 325.193 0.942,290.554 -0.074,289.971 0.547 M78.000 33.400 C 78.000 33.819,77.578 34.000,76.600 34.000 C 75.830 34.000,75.200 33.820,75.200 33.600 C 75.200 33.380,74.570 33.200,73.800 33.200 C 72.901 33.200,72.400 33.391,72.400 33.733 C 72.400 34.134,71.857 34.221,70.200 34.083 C 68.990 33.983,67.998 34.058,67.996 34.250 C 67.994 34.443,66.950 34.634,65.676 34.676 C 63.143 34.760,55.577 36.227,55.222 36.703 C 55.100 36.866,54.820 37.004,54.600 37.009 C 53.652 37.032,44.800 40.101,44.800 40.408 C 44.800 40.594,44.395 40.868,43.900 41.018 C 43.009 41.286,41.134 42.053,39.200 42.940 C 38.650 43.192,38.056 43.624,37.880 43.899 C 37.704 44.175,37.395 44.400,37.194 44.400 C 35.784 44.400,31.875 47.553,26.035 53.400 C 20.077 59.366,19.200 60.288,19.200 60.592 C 19.200 60.736,18.750 61.443,18.200 62.164 C 17.650 62.886,17.200 63.684,17.200 63.938 C 17.200 64.192,17.028 64.400,16.817 64.400 C 16.606 64.400,15.948 65.255,15.353 66.300 C 14.759 67.345,14.077 68.382,13.837 68.605 C 13.273 69.127,10.800 74.088,10.800 74.696 C 10.800 74.951,10.551 75.304,10.247 75.480 C 9.715 75.788,7.600 80.601,7.600 81.503 C 7.600 81.745,7.326 82.217,6.990 82.553 C 6.463 83.080,4.678 88.504,3.816 92.196 C 3.662 92.854,3.396 93.484,3.224 93.596 C -0.224 95.849,-0.189 158.800,3.261 158.800 C 3.447 158.800,3.600 159.107,3.600 159.482 C 3.600 160.615,6.523 172.183,6.870 172.421 C 7.047 172.543,7.729 174.431,8.385 176.618 C 9.042 178.804,9.764 180.655,9.989 180.730 C 10.215 180.805,10.400 181.081,10.400 181.342 C 10.400 182.039,12.528 187.448,14.140 190.851 C 14.909 192.473,15.662 194.297,15.814 194.905 C 15.965 195.513,16.294 196.143,16.545 196.305 C 16.796 196.467,17.200 197.050,17.444 197.600 C 17.687 198.150,18.272 199.382,18.743 200.338 C 19.214 201.294,19.600 202.329,19.600 202.638 C 19.600 202.947,19.778 203.200,19.995 203.200 C 20.212 203.200,21.048 204.595,21.853 206.300 C 22.659 208.005,23.460 209.494,23.633 209.608 C 23.807 209.722,24.498 210.921,25.168 212.272 C 25.839 213.624,26.525 214.790,26.694 214.865 C 26.862 214.939,27.588 216.205,28.306 217.677 C 29.024 219.149,29.857 220.600,30.157 220.900 C 30.457 221.200,31.302 222.598,32.036 224.007 C 32.769 225.416,33.660 226.860,34.015 227.215 C 34.371 227.571,35.069 228.703,35.567 229.731 C 36.064 230.759,36.635 231.600,36.836 231.600 C 37.036 231.600,37.200 231.758,37.200 231.952 C 37.200 232.453,39.728 236.585,40.518 237.375 C 40.882 237.739,41.464 238.635,41.810 239.365 C 42.156 240.095,42.746 241.031,43.120 241.446 C 44.061 242.489,46.000 245.508,46.000 245.929 C 46.000 246.120,46.357 246.599,46.793 246.994 C 47.230 247.389,48.131 248.677,48.797 249.856 C 49.462 251.035,50.185 252.000,50.403 252.000 C 50.622 252.000,50.800 252.168,50.800 252.373 C 50.800 252.854,53.254 256.875,53.868 257.400 C 54.125 257.620,54.755 258.548,55.268 259.461 C 55.781 260.375,56.512 261.545,56.894 262.061 C 58.342 264.019,59.529 265.948,59.787 266.759 C 59.934 267.221,60.212 267.600,60.406 267.600 C 60.600 267.600,61.232 268.545,61.810 269.700 C 62.389 270.855,63.291 272.363,63.815 273.051 C 64.338 273.739,65.222 275.299,65.779 276.516 C 66.336 277.734,66.929 278.791,67.096 278.865 C 67.263 278.939,68.013 280.256,68.762 281.791 C 69.511 283.326,70.366 284.824,70.662 285.119 C 70.958 285.415,71.200 285.968,71.200 286.349 C 71.200 286.729,71.358 287.211,71.552 287.420 C 71.745 287.629,72.125 288.520,72.396 289.400 C 72.666 290.280,73.251 291.630,73.696 292.400 C 74.505 293.803,75.709 297.427,76.486 300.800 C 76.714 301.790,77.028 302.690,77.183 302.800 C 77.539 303.051,78.400 308.274,78.400 310.177 C 78.400 310.960,78.580 311.600,78.800 311.600 C 79.020 311.600,79.200 312.050,79.200 312.600 C 79.200 313.150,79.020 313.600,78.800 313.600 C 78.580 313.600,78.400 314.055,78.400 314.611 C 78.400 316.152,77.454 320.800,77.141 320.800 C 76.988 320.800,76.739 321.385,76.586 322.100 C 76.201 323.910,74.388 329.315,74.004 329.800 C 73.830 330.020,73.407 331.010,73.065 332.000 C 71.495 336.546,70.703 338.616,70.461 338.800 C 70.102 339.074,67.600 346.875,67.600 347.721 C 67.600 348.094,67.443 348.400,67.251 348.400 C 66.938 348.400,64.804 356.501,64.798 357.711 C 64.796 357.980,64.530 358.709,64.206 359.330 C 63.647 360.401,60.800 373.110,60.800 374.532 C 60.800 374.899,60.649 375.200,60.465 375.200 C 60.035 375.200,58.620 384.155,58.925 384.949 C 59.052 385.279,58.965 385.612,58.732 385.689 C 58.475 385.775,58.288 387.509,58.255 390.115 C 58.225 392.472,58.110 394.400,58.000 394.400 C 57.890 394.400,57.800 400.790,57.800 408.600 C 57.800 416.410,57.947 422.800,58.127 422.800 C 58.308 422.800,58.329 424.240,58.176 426.000 C 58.020 427.785,58.052 429.200,58.248 429.199 C 58.442 429.199,58.539 430.279,58.464 431.599 C 58.390 432.920,58.480 434.000,58.664 434.000 C 58.849 434.001,59.029 435.840,59.065 438.089 C 59.106 440.636,59.295 442.232,59.568 442.323 C 59.808 442.403,59.899 442.640,59.770 442.849 C 59.363 443.507,60.059 449.200,60.547 449.204 C 60.833 449.206,61.034 450.272,61.094 452.102 C 61.145 453.694,61.360 455.053,61.571 455.124 C 61.782 455.194,61.856 455.509,61.735 455.824 C 61.474 456.505,63.572 470.511,63.978 470.800 C 64.133 470.910,64.852 474.772,65.577 479.381 C 66.302 483.991,67.048 488.041,67.236 488.381 C 67.424 488.722,67.843 490.710,68.167 492.800 C 69.284 499.995,70.092 504.200,70.397 504.400 C 70.565 504.510,70.829 505.410,70.985 506.400 C 71.140 507.390,71.424 508.830,71.616 509.600 C 71.808 510.370,72.357 512.620,72.837 514.600 C 73.316 516.580,73.850 518.381,74.022 518.602 C 74.194 518.823,74.908 520.758,75.609 522.902 C 76.309 525.046,77.044 526.800,77.241 526.800 C 77.439 526.800,77.600 526.979,77.600 527.198 C 77.600 527.922,80.366 533.600,80.719 533.600 C 80.909 533.600,81.314 534.095,81.619 534.700 C 82.086 535.626,86.215 539.892,88.443 541.750 C 94.891 547.127,105.159 542.160,109.429 531.600 C 110.007 530.170,110.616 528.820,110.782 528.600 C 110.948 528.380,111.209 527.750,111.361 527.200 C 112.503 523.062,112.808 521.829,113.388 519.010 C 113.749 517.255,114.179 515.725,114.343 515.610 C 114.634 515.406,117.227 500.105,117.209 498.700 C 117.204 498.315,117.354 498.000,117.543 498.000 C 117.731 498.000,118.180 496.155,118.539 493.900 C 118.899 491.645,119.470 488.360,119.808 486.600 C 120.147 484.840,120.535 482.680,120.672 481.800 C 120.808 480.920,121.064 480.105,121.241 479.988 C 121.417 479.872,122.125 476.903,122.814 473.391 C 123.504 469.879,124.205 466.914,124.372 466.803 C 124.539 466.691,124.793 465.970,124.935 465.200 C 125.676 461.188,127.346 454.201,127.611 454.000 C 127.756 453.890,128.568 450.920,129.415 447.400 C 130.262 443.880,131.081 440.910,131.236 440.800 C 131.391 440.690,132.100 438.350,132.813 435.600 C 133.525 432.850,134.226 430.510,134.371 430.400 C 134.660 430.180,135.074 428.874,136.650 423.200 C 137.231 421.110,137.830 419.310,137.981 419.200 C 138.132 419.090,138.669 417.650,139.175 416.000 C 140.749 410.858,140.986 410.215,141.500 409.671 C 141.775 409.381,142.000 408.820,142.000 408.425 C 142.000 407.732,143.080 404.688,144.208 402.200 C 145.210 399.991,146.358 397.019,147.028 394.900 C 147.393 393.745,147.815 392.800,147.966 392.800 C 148.116 392.800,148.470 392.125,148.753 391.300 C 149.799 388.243,151.003 385.392,151.354 385.141 C 151.552 384.998,151.940 384.278,152.215 383.541 C 153.791 379.320,154.417 377.833,154.708 377.629 C 154.887 377.503,155.630 376.050,156.359 374.400 C 157.087 372.750,157.804 371.310,157.950 371.200 C 158.096 371.090,158.840 369.740,159.604 368.200 C 160.367 366.660,161.194 365.186,161.441 364.926 C 161.689 364.665,162.479 363.234,163.196 361.747 C 163.913 360.260,164.717 358.825,164.983 358.560 C 165.248 358.295,165.991 357.033,166.633 355.757 C 167.275 354.481,168.189 353.015,168.663 352.500 C 169.138 351.984,169.818 350.949,170.173 350.200 C 170.529 349.450,171.044 348.604,171.318 348.319 C 171.592 348.033,172.437 346.810,173.195 345.600 C 173.953 344.390,174.671 343.310,174.789 343.200 C 175.457 342.580,177.200 339.987,177.200 339.614 C 177.200 339.373,177.465 339.073,177.790 338.949 C 178.114 338.824,178.904 337.885,179.545 336.861 C 180.743 334.950,181.338 334.193,185.300 329.543 C 186.565 328.058,187.600 326.716,187.600 326.560 C 187.600 326.404,188.309 325.669,189.177 324.927 C 190.044 324.185,190.866 323.223,191.004 322.789 C 191.141 322.355,191.512 322.000,191.827 322.000 C 192.142 322.000,192.400 321.832,192.400 321.626 C 192.400 320.991,202.830 310.857,208.000 306.469 C 208.770 305.816,210.280 304.530,211.356 303.613 C 212.432 302.695,213.782 301.653,214.356 301.296 C 214.930 300.939,215.919 300.138,216.554 299.516 C 217.189 298.895,218.320 298.096,219.068 297.741 C 219.816 297.386,220.608 296.759,220.828 296.348 C 221.048 295.937,221.414 295.600,221.641 295.600 C 221.868 295.600,222.643 295.150,223.364 294.600 C 224.086 294.050,224.839 293.597,225.038 293.593 C 225.237 293.589,225.805 293.159,226.299 292.637 C 226.794 292.116,228.009 291.308,228.999 290.842 C 229.990 290.377,230.800 289.850,230.800 289.672 C 230.800 289.494,231.430 289.048,232.200 288.681 C 233.775 287.930,233.876 287.594,232.954 286.186 C 232.243 285.101,231.147 284.910,230.328 285.729 C 230.037 286.020,228.405 286.947,226.700 287.790 C 224.995 288.632,223.600 289.462,223.600 289.634 C 223.600 289.806,223.195 290.072,222.700 290.227 C 222.205 290.381,220.540 291.348,219.000 292.376 C 217.460 293.404,215.435 294.673,214.500 295.196 C 213.565 295.719,212.800 296.299,212.800 296.484 C 212.800 296.668,212.395 296.974,211.900 297.163 C 211.405 297.352,209.692 298.517,208.094 299.753 C 206.496 300.989,205.005 302.000,204.781 302.000 C 204.558 302.000,204.274 302.264,204.150 302.586 C 204.026 302.908,202.973 303.804,201.809 304.577 C 200.645 305.349,199.588 306.255,199.459 306.591 C 199.330 306.926,198.978 307.200,198.677 307.200 C 198.375 307.200,197.477 307.875,196.680 308.700 C 195.884 309.525,194.513 310.740,193.635 311.400 C 192.756 312.060,192.029 312.825,192.019 313.100 C 192.008 313.375,191.770 313.600,191.490 313.600 C 191.209 313.600,188.224 316.435,184.856 319.900 C 181.488 323.365,178.025 326.920,177.161 327.800 C 176.298 328.680,175.593 329.580,175.595 329.800 C 175.598 330.020,174.970 330.703,174.200 331.317 C 173.430 331.931,172.800 332.674,172.800 332.966 C 172.800 333.259,172.170 334.036,171.400 334.694 C 170.630 335.352,170.000 336.067,170.000 336.284 C 170.000 336.500,169.370 337.326,168.600 338.119 C 167.830 338.912,167.200 339.664,167.200 339.791 C 167.200 339.917,166.101 341.411,164.757 343.111 C 163.413 344.810,162.158 346.605,161.967 347.100 C 161.776 347.595,161.456 348.000,161.255 348.000 C 161.055 348.000,160.609 348.595,160.264 349.322 C 159.919 350.049,159.137 351.174,158.527 351.822 C 157.431 352.985,156.463 354.450,155.502 356.400 C 155.231 356.950,154.776 357.644,154.492 357.942 C 154.207 358.240,153.612 359.192,153.170 360.058 C 152.728 360.925,152.059 361.953,151.683 362.344 C 151.308 362.735,150.370 364.303,149.600 365.828 C 148.830 367.352,147.989 368.780,147.731 369.000 C 147.472 369.220,146.678 370.660,145.965 372.200 C 145.252 373.740,144.429 375.144,144.135 375.320 C 143.841 375.496,143.600 375.853,143.600 376.114 C 143.600 376.790,141.531 380.818,140.700 381.759 C 140.315 382.194,140.000 382.781,140.000 383.063 C 140.000 383.345,139.640 384.217,139.200 385.000 C 138.760 385.783,138.400 386.680,138.400 386.992 C 138.400 387.305,138.163 387.704,137.874 387.880 C 137.585 388.056,136.927 389.280,136.412 390.600 C 135.897 391.920,135.323 393.171,135.138 393.380 C 134.952 393.589,134.800 394.069,134.800 394.447 C 134.800 394.824,134.609 395.197,134.376 395.275 C 133.942 395.419,132.005 399.822,132.002 400.671 C 132.001 400.931,131.775 401.381,131.500 401.671 C 130.818 402.392,130.212 403.728,129.173 406.800 C 128.690 408.230,127.868 410.171,127.347 411.114 C 126.826 412.057,126.400 413.094,126.400 413.420 C 126.400 413.745,126.220 414.368,126.000 414.805 C 125.780 415.242,125.420 415.958,125.200 416.395 C 124.980 416.832,124.800 417.552,124.800 417.995 C 124.800 418.438,124.640 418.800,124.444 418.800 C 124.248 418.800,123.398 420.915,122.556 423.500 C 121.714 426.085,120.889 428.298,120.723 428.417 C 120.367 428.673,118.400 434.571,118.400 435.384 C 118.400 435.691,118.159 436.184,117.864 436.478 C 117.570 436.773,117.222 437.461,117.092 438.007 C 116.345 441.141,114.671 446.586,114.388 446.800 C 114.242 446.910,113.807 448.080,113.421 449.400 C 113.034 450.720,112.570 452.250,112.388 452.800 C 112.207 453.350,111.825 454.790,111.539 456.000 C 111.252 457.210,110.834 458.393,110.609 458.629 C 110.384 458.865,109.679 461.205,109.042 463.829 C 108.405 466.453,107.755 468.690,107.596 468.800 C 107.438 468.910,106.625 471.790,105.790 475.200 C 104.954 478.610,104.151 481.490,104.006 481.600 C 103.738 481.802,103.591 482.345,101.941 489.200 C 101.438 491.290,100.922 493.090,100.793 493.200 C 100.665 493.310,99.957 496.100,99.221 499.400 C 98.485 502.700,97.760 505.490,97.610 505.600 C 97.461 505.710,96.825 508.185,96.198 511.100 C 95.570 514.015,94.953 516.400,94.826 516.400 C 94.342 516.400,93.620 514.042,92.803 509.800 C 92.337 507.380,91.786 504.749,91.578 503.954 C 91.370 503.158,91.200 502.048,91.200 501.487 C 91.200 500.926,91.030 500.407,90.821 500.333 C 90.449 500.202,88.000 486.870,88.000 484.973 C 88.000 484.438,87.820 484.000,87.600 484.000 C 87.380 484.000,87.200 483.460,87.200 482.800 C 87.200 482.140,87.009 481.600,86.776 481.600 C 86.543 481.600,86.462 481.423,86.596 481.207 C 86.941 480.648,85.512 469.200,85.097 469.200 C 84.908 469.200,84.866 469.018,85.003 468.794 C 85.491 468.005,84.736 462.000,84.148 462.000 C 83.847 462.000,83.600 461.640,83.600 461.200 C 83.600 460.760,83.780 460.400,84.000 460.400 C 84.220 460.400,84.400 459.590,84.400 458.600 C 84.400 457.610,84.220 456.800,84.000 456.800 C 83.780 456.800,83.600 455.810,83.600 454.600 C 83.600 453.390,83.426 452.400,83.213 452.400 C 82.974 452.400,82.920 451.168,83.072 449.200 C 83.211 447.392,83.162 446.000,82.959 446.001 C 82.762 446.001,82.658 444.471,82.729 442.601 C 82.801 440.730,82.707 439.200,82.521 439.200 C 82.335 439.200,82.187 432.990,82.192 425.400 C 82.196 417.810,82.348 411.600,82.529 411.600 C 82.711 411.600,82.801 410.070,82.729 408.199 C 82.658 406.329,82.761 404.799,82.958 404.799 C 83.157 404.800,83.212 403.556,83.081 402.000 C 82.943 400.349,83.001 399.200,83.223 399.200 C 83.430 399.200,83.600 398.300,83.600 397.200 C 83.600 396.100,83.780 395.200,84.000 395.200 C 84.591 395.200,84.497 391.706,83.900 391.465 C 83.601 391.344,83.682 391.250,84.100 391.232 C 84.571 391.210,84.800 390.874,84.800 390.201 C 84.800 389.652,85.273 386.097,85.851 382.301 C 86.429 378.506,86.988 374.725,87.093 373.900 C 87.198 373.075,87.437 372.400,87.624 372.400 C 87.811 372.400,88.073 371.725,88.206 370.900 C 88.680 367.964,90.505 360.197,90.767 360.000 C 90.914 359.890,91.275 358.990,91.570 358.000 C 92.615 354.496,93.716 351.397,93.985 351.200 C 94.326 350.950,97.200 344.071,97.200 343.504 C 97.200 343.275,97.444 342.888,97.743 342.644 C 98.042 342.400,98.779 340.940,99.382 339.400 C 99.984 337.860,100.622 336.510,100.799 336.400 C 100.977 336.290,101.790 334.220,102.607 331.800 C 103.424 329.380,104.227 327.310,104.391 327.200 C 104.688 327.001,104.784 326.584,105.494 322.400 C 106.357 317.309,105.473 298.000,104.376 298.000 C 104.229 298.000,103.800 296.695,103.423 295.100 C 102.408 290.806,101.263 287.179,100.802 286.800 C 100.668 286.690,100.236 285.700,99.842 284.600 C 98.953 282.120,97.960 279.865,97.641 279.600 C 97.308 279.323,95.598 275.873,95.599 275.481 C 95.600 275.305,95.012 274.225,94.293 273.081 C 93.574 271.936,92.556 270.145,92.030 269.100 C 91.504 268.055,90.950 267.200,90.798 267.200 C 90.646 267.200,89.934 266.075,89.215 264.700 C 88.496 263.325,87.772 262.110,87.607 262.000 C 87.442 261.890,86.620 260.720,85.782 259.400 C 84.944 258.080,84.055 256.820,83.806 256.600 C 83.351 256.197,81.200 252.949,81.200 252.665 C 81.200 252.581,80.570 251.844,79.800 251.027 C 79.030 250.211,78.400 249.290,78.400 248.981 C 78.400 248.671,77.966 248.134,77.434 247.786 C 76.903 247.438,76.178 246.540,75.822 245.791 C 75.467 245.042,74.850 244.197,74.451 243.914 C 74.053 243.631,73.504 242.981,73.232 242.468 C 72.782 241.619,72.077 240.671,70.994 239.455 C 69.885 238.211,68.104 235.721,67.879 235.100 C 67.739 234.715,67.458 234.400,67.254 234.400 C 67.050 234.400,66.333 233.545,65.660 232.500 C 64.986 231.455,64.068 230.373,63.618 230.097 C 63.168 229.820,62.800 229.338,62.800 229.025 C 62.800 228.713,62.170 227.789,61.400 226.973 C 60.630 226.156,60.000 225.435,60.000 225.371 C 60.000 225.002,57.320 220.947,56.898 220.679 C 56.621 220.502,56.037 219.656,55.600 218.800 C 55.163 217.944,54.569 217.098,54.280 216.921 C 53.990 216.745,53.386 215.880,52.936 215.000 C 51.149 211.501,50.729 210.800,50.418 210.800 C 50.239 210.800,49.639 209.839,49.082 208.664 C 48.526 207.489,47.830 206.274,47.535 205.964 C 47.240 205.654,46.279 203.960,45.399 202.200 C 44.520 200.440,43.674 198.905,43.521 198.789 C 43.367 198.673,42.675 197.368,41.983 195.889 C 41.291 194.410,40.562 193.200,40.362 193.200 C 40.163 193.200,40.000 192.947,40.000 192.638 C 40.000 192.329,39.657 191.384,39.237 190.538 C 38.818 189.692,38.180 188.325,37.819 187.500 C 37.458 186.675,36.991 186.000,36.781 186.000 C 36.572 186.000,36.400 185.735,36.400 185.411 C 36.400 185.087,36.014 183.962,35.541 182.911 C 35.069 181.860,34.485 180.550,34.242 180.000 C 34.000 179.450,33.702 178.910,33.580 178.800 C 33.458 178.690,33.039 177.700,32.648 176.600 C 32.258 175.500,31.783 174.240,31.594 173.800 C 31.405 173.360,31.137 172.595,30.998 172.100 C 30.860 171.605,30.578 171.200,30.373 171.200 C 30.168 171.200,30.000 170.928,30.000 170.595 C 30.000 170.262,29.835 169.677,29.633 169.295 C 29.431 168.913,28.810 167.160,28.254 165.400 C 27.697 163.640,26.872 161.444,26.421 160.519 C 25.969 159.595,25.600 158.618,25.600 158.348 C 25.600 158.078,25.420 157.259,25.200 156.528 C 24.980 155.798,24.603 154.525,24.363 153.700 C 23.711 151.462,23.045 150.000,22.679 150.000 C 22.499 150.000,22.450 149.843,22.568 149.651 C 22.988 148.972,20.687 138.800,20.114 138.800 C 19.709 138.800,19.673 138.612,19.971 138.053 C 20.242 137.547,20.227 136.871,19.925 135.953 C 19.183 133.703,19.141 133.486,18.979 131.030 C 18.892 129.727,18.630 128.542,18.395 128.397 C 18.131 128.234,18.071 127.499,18.236 126.467 C 18.404 125.415,18.350 124.800,18.089 124.800 C 17.821 124.800,17.753 123.677,17.895 121.600 C 18.050 119.339,17.980 118.400,17.657 118.400 C 17.341 118.400,17.200 116.983,17.200 113.800 C 17.200 110.637,17.342 109.200,17.654 109.200 C 17.968 109.200,18.046 108.339,17.907 106.400 C 17.784 104.676,17.860 103.600,18.105 103.600 C 18.345 103.600,18.401 102.965,18.246 102.000 C 18.106 101.120,18.151 100.400,18.347 100.400 C 18.543 100.400,18.909 99.013,19.161 97.318 C 19.413 95.622,19.821 94.110,20.068 93.958 C 20.315 93.805,20.394 93.362,20.245 92.972 C 20.095 92.583,20.170 92.142,20.411 91.993 C 20.651 91.845,20.882 91.066,20.924 90.263 C 20.966 89.460,21.111 88.803,21.246 88.802 C 21.381 88.801,21.900 87.585,22.399 86.100 C 22.898 84.615,23.418 83.310,23.554 83.200 C 23.690 83.090,24.003 82.550,24.250 82.000 C 25.697 78.776,26.654 76.952,27.085 76.600 C 27.354 76.380,27.834 75.570,28.152 74.800 C 28.469 74.030,29.280 72.860,29.954 72.200 C 30.627 71.540,31.183 70.847,31.189 70.660 C 31.209 70.039,36.488 64.400,37.049 64.400 C 37.352 64.400,37.600 64.217,37.600 63.994 C 37.600 63.447,40.074 61.226,40.700 61.212 C 40.975 61.205,41.200 61.018,41.200 60.795 C 41.200 60.572,42.235 59.732,43.500 58.928 C 44.765 58.124,45.855 57.330,45.923 57.164 C 45.991 56.997,47.251 56.283,48.723 55.576 C 50.195 54.869,51.507 54.125,51.638 53.923 C 51.768 53.720,53.658 52.933,55.838 52.173 C 58.017 51.413,60.160 50.615,60.600 50.401 C 61.728 49.850,65.378 48.957,68.955 48.356 C 71.194 47.979,72.008 47.679,72.032 47.222 C 72.053 46.810,72.131 46.769,72.265 47.100 C 72.503 47.691,74.800 47.782,74.800 47.200 C 74.800 46.980,75.520 46.800,76.400 46.800 C 77.280 46.800,78.000 46.642,78.000 46.449 C 78.000 46.256,78.810 46.190,79.800 46.301 C 80.813 46.415,81.600 46.338,81.600 46.124 C 81.600 45.899,82.992 45.816,85.000 45.922 C 87.358 46.046,88.400 45.962,88.400 45.650 C 88.400 45.331,90.894 45.200,97.000 45.200 C 103.233 45.200,105.600 45.327,105.600 45.662 C 105.600 46.000,106.941 46.055,110.600 45.870 C 114.072 45.694,115.600 45.749,115.600 46.049 C 115.600 46.344,116.487 46.392,118.400 46.200 C 120.523 45.987,121.200 46.040,121.200 46.419 C 121.200 46.798,122.019 46.861,124.600 46.679 C 127.415 46.480,128.000 46.539,128.000 47.019 C 128.000 47.398,128.418 47.600,129.200 47.600 C 129.860 47.600,130.400 47.420,130.400 47.200 C 130.400 46.980,130.850 46.800,131.400 46.800 C 132.062 46.800,132.400 47.023,132.400 47.459 C 132.400 48.037,132.795 48.088,135.600 47.872 C 137.807 47.702,138.800 47.761,138.800 48.064 C 138.800 48.364,139.559 48.417,141.200 48.232 C 142.949 48.034,143.600 48.090,143.600 48.440 C 143.600 48.793,144.492 48.856,147.000 48.679 C 149.266 48.519,150.400 48.579,150.400 48.860 C 150.400 49.142,151.328 49.188,153.200 49.000 C 155.321 48.787,156.000 48.840,156.000 49.218 C 156.000 49.604,157.043 49.655,160.600 49.442 C 163.130 49.291,165.200 49.310,165.200 49.484 C 165.200 49.658,175.820 49.800,188.800 49.800 C 201.780 49.800,212.400 49.655,212.400 49.479 C 212.400 49.302,214.380 49.282,216.800 49.435 C 220.095 49.644,221.200 49.594,221.200 49.237 C 221.200 48.891,221.857 48.835,223.600 49.032 C 225.057 49.197,226.000 49.152,226.000 48.919 C 226.000 48.697,226.932 48.611,228.200 48.717 C 229.410 48.817,230.400 48.733,230.400 48.530 C 230.400 48.327,231.030 48.234,231.800 48.324 C 232.570 48.414,233.201 48.333,233.203 48.144 C 233.205 47.955,234.308 47.774,235.654 47.742 C 237.000 47.710,238.213 47.510,238.351 47.297 C 238.488 47.085,239.497 46.779,240.594 46.617 C 244.246 46.078,250.569 44.326,253.083 43.156 C 254.449 42.520,255.834 42.000,256.160 42.000 C 256.486 42.000,256.852 41.840,256.973 41.644 C 257.094 41.449,257.687 41.164,258.292 41.013 C 258.897 40.861,259.484 40.601,259.596 40.435 C 259.708 40.269,260.925 39.538,262.300 38.811 C 265.005 37.380,265.491 36.350,264.069 35.062 C 263.294 34.361,259.020 35.455,257.454 36.755 C 257.114 37.038,256.647 37.153,256.418 37.011 C 256.188 36.869,256.000 36.927,256.000 37.141 C 256.000 37.511,250.849 39.245,248.100 39.801 C 247.385 39.945,246.800 40.209,246.800 40.386 C 246.800 40.564,246.305 40.797,245.700 40.905 C 245.095 41.013,242.800 41.469,240.600 41.918 C 238.400 42.367,235.745 42.860,234.700 43.013 C 233.655 43.166,232.800 43.497,232.800 43.748 C 232.800 44.045,232.168 44.155,231.000 44.063 C 229.860 43.972,229.200 44.082,229.200 44.364 C 229.200 44.660,228.661 44.723,227.600 44.554 C 226.635 44.399,226.000 44.455,226.000 44.695 C 226.000 44.940,224.924 45.016,223.200 44.893 C 221.149 44.746,220.400 44.824,220.400 45.182 C 220.400 45.552,219.569 45.603,217.000 45.389 C 214.591 45.188,213.600 45.236,213.600 45.553 C 213.600 45.859,212.019 46.000,208.600 46.000 C 205.209 46.000,203.600 45.857,203.600 45.557 C 203.600 45.243,202.432 45.197,199.600 45.400 C 196.536 45.619,195.600 45.571,195.600 45.192 C 195.600 44.825,194.774 44.745,192.400 44.882 C 190.464 44.995,189.200 44.914,189.200 44.678 C 189.200 44.446,188.393 44.384,187.200 44.525 C 185.899 44.680,185.200 44.613,185.200 44.335 C 185.200 44.058,184.282 43.965,182.600 44.072 C 180.651 44.196,180.000 44.108,180.000 43.719 C 180.000 43.409,179.517 43.200,178.800 43.200 C 178.140 43.200,177.600 43.380,177.600 43.600 C 177.600 43.820,177.420 44.000,177.200 44.000 C 176.980 44.000,176.800 43.756,176.800 43.459 C 176.800 42.879,171.095 42.170,170.314 42.653 C 170.092 42.790,169.796 42.717,169.655 42.490 C 169.515 42.263,168.050 42.015,166.400 41.939 C 164.750 41.863,163.305 41.673,163.188 41.518 C 163.071 41.364,161.588 41.184,159.891 41.118 C 157.756 41.036,156.806 40.846,156.803 40.500 C 156.799 39.853,154.322 39.838,153.680 40.480 C 153.307 40.853,153.200 40.816,153.200 40.312 C 153.200 39.672,150.432 39.154,146.400 39.040 C 145.630 39.018,144.902 38.870,144.783 38.710 C 144.663 38.551,143.270 38.371,141.686 38.310 C 140.103 38.250,138.806 38.065,138.804 37.900 C 138.802 37.735,138.091 37.600,137.224 37.600 C 136.357 37.600,135.525 37.402,135.375 37.160 C 135.223 36.913,134.609 36.818,133.980 36.944 C 133.362 37.068,132.799 37.010,132.728 36.815 C 132.658 36.621,131.160 36.403,129.400 36.331 C 127.640 36.259,126.103 36.071,125.985 35.913 C 125.866 35.756,124.293 35.576,122.488 35.513 C 120.684 35.451,119.206 35.240,119.204 35.045 C 119.202 34.850,118.030 34.784,116.600 34.899 C 114.997 35.028,114.000 34.955,114.000 34.709 C 114.000 34.462,113.312 34.412,112.200 34.579 C 110.913 34.772,110.400 34.712,110.400 34.367 C 110.400 34.009,109.577 33.954,107.200 34.152 C 104.484 34.378,104.000 34.327,104.000 33.809 C 104.000 33.399,103.608 33.200,102.800 33.200 C 102.140 33.200,101.600 33.380,101.600 33.600 C 101.600 33.820,100.880 34.000,100.000 34.000 C 98.844 34.000,98.400 33.833,98.400 33.400 C 98.400 32.882,97.000 32.800,88.200 32.800 C 79.400 32.800,78.000 32.882,78.000 33.400 " stroke="none" fill="#fc744c" fill-rule="evenodd"></path><path id="path1" d="M293.200 8.000 C 293.200 8.235,294.600 8.400,296.600 8.400 C 298.600 8.400,300.000 8.235,300.000 8.000 C 300.000 7.765,298.600 7.600,296.600 7.600 C 294.600 7.600,293.200 7.765,293.200 8.000 M284.400 8.400 C 284.400 8.620,284.760 8.800,285.200 8.800 C 285.640 8.800,286.000 8.620,286.000 8.400 C 286.000 8.180,285.640 8.000,285.200 8.000 C 284.760 8.000,284.400 8.180,284.400 8.400 M277.200 8.800 C 277.200 9.020,277.751 9.200,278.424 9.200 C 279.137 9.200,279.544 9.033,279.400 8.800 C 279.264 8.580,278.713 8.400,278.176 8.400 C 277.639 8.400,277.200 8.580,277.200 8.800 M189.247 27.900 C 189.364 28.641,189.159 28.955,188.862 28.487 C 188.617 28.100,188.224 28.249,187.256 29.094 C 185.685 30.465,186.306 32.316,187.992 31.286 C 188.454 31.004,188.986 30.868,189.175 30.984 C 189.363 31.101,189.970 30.960,190.524 30.673 C 191.490 30.172,191.500 30.130,190.766 29.672 C 190.345 29.409,190.000 28.835,190.000 28.397 C 190.000 27.958,189.820 27.600,189.600 27.600 C 189.380 27.600,189.221 27.735,189.247 27.900 M267.600 32.200 C 267.330 32.525,266.970 32.705,266.800 32.600 C 266.630 32.495,266.283 32.659,266.029 32.966 C 265.676 33.390,265.687 33.562,266.073 33.691 C 266.353 33.784,266.181 33.964,265.689 34.093 C 265.200 34.221,264.900 34.162,265.023 33.963 C 265.301 33.513,264.775 33.501,264.081 33.941 C 263.667 34.204,263.687 34.374,264.181 34.784 C 264.521 35.067,264.800 35.636,264.800 36.049 C 264.800 37.028,265.410 37.007,266.113 36.003 C 266.420 35.564,266.799 35.332,266.954 35.487 C 267.258 35.791,269.166 33.659,269.179 33.000 C 269.184 32.780,268.995 32.870,268.759 33.200 C 268.415 33.682,268.369 33.623,268.528 32.900 C 268.771 31.791,268.260 31.405,267.600 32.200 M104.000 33.920 C 104.000 34.096,104.630 34.166,105.400 34.076 C 106.170 33.986,106.800 33.842,106.800 33.756 C 106.800 33.670,106.170 33.600,105.400 33.600 C 104.630 33.600,104.000 33.744,104.000 33.920 M114.000 34.800 C 114.000 35.020,114.270 35.200,114.600 35.200 C 114.930 35.200,115.200 35.020,115.200 34.800 C 115.200 34.580,114.930 34.400,114.600 34.400 C 114.270 34.400,114.000 34.580,114.000 34.800 M189.200 44.800 C 189.200 45.020,189.459 45.200,189.776 45.200 C 190.093 45.200,190.464 45.020,190.600 44.800 C 190.736 44.580,190.477 44.400,190.024 44.400 C 189.571 44.400,189.200 44.580,189.200 44.800 M88.400 45.600 C 88.400 45.820,89.300 46.000,90.400 46.000 C 91.500 46.000,92.400 45.820,92.400 45.600 C 92.400 45.380,91.500 45.200,90.400 45.200 C 89.300 45.200,88.400 45.380,88.400 45.600 M100.400 45.600 C 100.400 45.826,101.533 46.000,103.000 46.000 C 104.467 46.000,105.600 45.826,105.600 45.600 C 105.600 45.374,104.467 45.200,103.000 45.200 C 101.533 45.200,100.400 45.374,100.400 45.600 M203.600 45.600 C 203.600 45.845,205.533 46.000,208.600 46.000 C 211.667 46.000,213.600 45.845,213.600 45.600 C 213.600 45.355,211.667 45.200,208.600 45.200 C 205.533 45.200,203.600 45.355,203.600 45.600 M81.600 46.000 C 81.600 46.220,81.870 46.400,82.200 46.400 C 82.530 46.400,82.800 46.220,82.800 46.000 C 82.800 45.780,82.530 45.600,82.200 45.600 C 81.870 45.600,81.600 45.780,81.600 46.000 M112.000 46.000 C 111.570 46.278,111.997 46.389,113.500 46.394 C 114.655 46.397,115.600 46.220,115.600 46.000 C 115.600 45.488,112.792 45.488,112.000 46.000 M126.400 46.800 L 125.000 47.095 126.500 47.147 C 127.325 47.176,128.000 47.020,128.000 46.800 C 128.000 46.580,127.955 46.424,127.900 46.453 C 127.845 46.482,127.170 46.638,126.400 46.800 M137.000 48.000 C 137.136 48.220,137.597 48.400,138.024 48.400 C 138.451 48.400,138.800 48.220,138.800 48.000 C 138.800 47.780,138.339 47.600,137.776 47.600 C 137.196 47.600,136.860 47.773,137.000 48.000 M148.400 48.800 C 148.400 49.020,148.850 49.200,149.400 49.200 C 149.950 49.200,150.400 49.020,150.400 48.800 C 150.400 48.580,149.950 48.400,149.400 48.400 C 148.850 48.400,148.400 48.580,148.400 48.800 M161.600 49.600 C 161.170 49.878,161.597 49.989,163.100 49.994 C 164.255 49.997,165.200 49.820,165.200 49.600 C 165.200 49.088,162.392 49.088,161.600 49.600 M212.400 49.600 C 212.400 49.820,213.345 49.997,214.500 49.994 C 216.003 49.989,216.430 49.878,216.000 49.600 C 215.208 49.088,212.400 49.088,212.400 49.600 M179.727 50.300 C 184.527 50.364,192.267 50.363,196.927 50.299 C 201.587 50.236,197.660 50.183,188.200 50.183 C 178.740 50.183,174.927 50.236,179.727 50.300 M17.600 124.000 C 17.600 124.440,17.780 124.800,18.000 124.800 C 18.220 124.800,18.400 124.440,18.400 124.000 C 18.400 123.560,18.220 123.200,18.000 123.200 C 17.780 123.200,17.600 123.560,17.600 124.000 M238.694 281.839 C 238.563 281.971,238.552 282.331,238.670 282.639 C 238.802 282.982,238.627 283.200,238.219 283.200 C 237.812 283.200,237.665 283.018,237.842 282.732 C 238.039 282.413,237.909 282.349,237.433 282.532 C 237.049 282.679,236.649 282.800,236.544 282.800 C 236.439 282.800,236.456 282.968,236.583 283.172 C 236.709 283.377,236.602 283.675,236.345 283.834 C 236.031 284.028,235.984 283.949,236.204 283.594 C 236.451 283.193,236.344 283.139,235.766 283.373 C 235.345 283.543,234.505 283.861,233.900 284.080 C 233.295 284.299,232.800 284.651,232.800 284.863 C 232.800 285.074,232.575 285.118,232.300 284.959 C 232.025 284.801,232.205 285.117,232.700 285.661 C 233.195 286.206,233.600 286.955,233.600 287.326 C 233.600 287.916,233.699 287.901,234.400 287.200 C 234.840 286.760,235.391 286.400,235.624 286.400 C 235.857 286.400,235.944 286.232,235.817 286.028 C 235.691 285.823,235.798 285.525,236.055 285.366 C 236.369 285.172,236.416 285.251,236.196 285.606 C 235.955 285.996,236.053 286.065,236.567 285.868 C 236.951 285.721,237.351 285.600,237.456 285.600 C 237.561 285.600,237.544 285.432,237.417 285.228 C 237.291 285.023,237.370 284.742,237.593 284.604 C 237.817 284.466,238.000 284.577,238.000 284.852 C 238.000 285.146,238.290 285.033,238.708 284.575 C 239.668 283.524,239.655 280.879,238.694 281.839 M309.628 308.100 C 309.613 308.705,309.780 309.200,310.000 309.200 C 310.469 309.200,310.469 308.893,310.000 307.800 C 309.695 307.091,309.653 307.125,309.628 308.100 M105.843 310.233 C 105.441 311.279,105.570 317.134,106.000 317.400 C 106.257 317.559,106.400 316.204,106.400 313.624 C 106.400 309.615,106.304 309.031,105.843 310.233 M336.093 311.600 C 336.093 312.370,336.175 312.685,336.276 312.300 C 336.376 311.915,336.376 311.285,336.276 310.900 C 336.175 310.515,336.093 310.830,336.093 311.600 M78.400 312.600 C 78.400 313.150,78.580 313.600,78.800 313.600 C 79.020 313.600,79.200 313.150,79.200 312.600 C 79.200 312.050,79.020 311.600,78.800 311.600 C 78.580 311.600,78.400 312.050,78.400 312.600 M308.928 321.600 C 308.928 323.030,309.001 323.615,309.089 322.900 C 309.178 322.185,309.178 321.015,309.089 320.300 C 309.001 319.585,308.928 320.170,308.928 321.600 M335.301 323.400 C 335.305 324.280,335.387 324.593,335.483 324.095 C 335.579 323.598,335.575 322.878,335.475 322.495 C 335.375 322.113,335.296 322.520,335.301 323.400 M204.140 323.477 C 204.330 323.802,204.080 323.929,203.353 323.877 C 201.905 323.773,201.806 324.369,203.034 325.800 C 203.657 326.526,203.974 326.715,203.837 326.279 C 203.712 325.883,203.755 325.649,203.933 325.759 C 204.845 326.322,205.544 324.473,204.699 323.733 C 204.239 323.330,203.988 323.214,204.140 323.477 M308.252 335.700 C 307.877 337.101,307.958 338.800,308.400 338.800 C 308.620 338.800,308.800 337.900,308.800 336.800 C 308.800 334.631,308.630 334.290,308.252 335.700 M334.000 336.800 C 334.000 337.680,334.180 338.400,334.400 338.400 C 334.620 338.400,334.800 337.680,334.800 336.800 C 334.800 335.920,334.620 335.200,334.400 335.200 C 334.180 335.200,334.000 335.920,334.000 336.800 M333.293 350.400 C 333.293 351.170,333.375 351.485,333.476 351.100 C 333.576 350.715,333.576 350.085,333.476 349.700 C 333.375 349.315,333.293 349.630,333.293 350.400 M307.854 351.456 C 307.467 354.280,307.550 358.000,308.000 358.000 C 308.241 358.000,308.400 356.333,308.400 353.800 C 308.400 349.229,308.249 348.579,307.854 351.456 M332.493 362.800 C 332.493 363.570,332.575 363.885,332.676 363.500 C 332.776 363.115,332.776 362.485,332.676 362.100 C 332.575 361.715,332.493 362.030,332.493 362.800 M306.828 371.100 C 306.813 371.815,306.980 372.400,307.200 372.400 C 307.675 372.400,307.675 371.705,307.200 370.600 C 306.912 369.930,306.852 370.011,306.828 371.100 M82.910 400.000 C 82.943 400.440,83.112 400.800,83.285 400.800 C 83.458 400.800,83.600 400.440,83.600 400.000 C 83.600 399.560,83.431 399.200,83.225 399.200 C 83.019 399.200,82.877 399.560,82.910 400.000 M57.313 408.400 C 57.313 413.988,57.419 416.230,57.617 414.800 C 57.784 413.590,57.921 410.710,57.921 408.400 C 57.921 406.090,57.784 403.210,57.617 402.000 C 57.419 400.570,57.313 402.812,57.313 408.400 M234.702 410.200 C 234.807 410.750,234.962 411.200,235.047 411.200 C 235.131 411.200,235.200 410.750,235.200 410.200 C 235.200 409.650,235.045 409.200,234.855 409.200 C 234.666 409.200,234.597 409.650,234.702 410.200 M243.412 410.517 C 243.241 410.912,243.213 411.347,243.351 411.484 C 243.757 411.890,244.084 411.320,243.897 410.531 C 243.732 409.833,243.710 409.832,243.412 410.517 M82.000 414.800 C 82.000 416.667,82.167 418.000,82.400 418.000 C 82.633 418.000,82.800 416.667,82.800 414.800 C 82.800 412.933,82.633 411.600,82.400 411.600 C 82.167 411.600,82.000 412.933,82.000 414.800 M235.346 420.600 C 235.347 422.800,235.414 423.649,235.495 422.487 C 235.576 421.324,235.576 419.524,235.493 418.487 C 235.411 417.449,235.345 418.400,235.346 420.600 M244.243 421.433 C 243.850 422.456,243.965 425.200,244.400 425.200 C 244.620 425.200,244.800 424.210,244.800 423.000 C 244.800 420.729,244.662 420.341,244.243 421.433 M57.701 424.200 C 57.705 425.080,57.787 425.393,57.883 424.895 C 57.979 424.398,57.975 423.678,57.875 423.295 C 57.775 422.913,57.696 423.320,57.701 424.200 M82.267 431.867 C 81.830 432.303,81.956 439.200,82.400 439.200 C 82.639 439.200,82.800 437.667,82.800 435.400 C 82.800 431.599,82.765 431.368,82.267 431.867 M58.400 434.800 C 58.400 435.240,58.580 435.600,58.800 435.600 C 59.020 435.600,59.200 435.240,59.200 434.800 C 59.200 434.360,59.020 434.000,58.800 434.000 C 58.580 434.000,58.400 434.360,58.400 434.800 M235.344 438.000 C 235.344 440.090,235.412 440.945,235.494 439.900 C 235.576 438.855,235.576 437.145,235.494 436.100 C 235.412 435.055,235.344 435.910,235.344 438.000 M234.800 448.767 C 234.800 448.969,234.700 449.396,234.577 449.716 C 234.454 450.035,234.600 450.391,234.902 450.507 C 235.308 450.663,235.406 450.419,235.279 449.559 C 235.120 448.476,234.800 447.947,234.800 448.767 M83.049 451.130 C 82.872 451.642,82.833 452.167,82.963 452.297 C 83.378 452.711,83.670 452.100,83.518 451.134 L 83.371 450.200 83.049 451.130 M244.006 452.900 C 244.009 453.615,244.187 454.470,244.400 454.800 C 244.680 455.234,244.789 454.874,244.794 453.500 C 244.797 452.455,244.620 451.600,244.400 451.600 C 244.180 451.600,244.003 452.185,244.006 452.900 M233.200 464.000 C 233.200 464.440,233.380 464.800,233.600 464.800 C 233.820 464.800,234.000 464.440,234.000 464.000 C 234.000 463.560,233.820 463.200,233.600 463.200 C 233.380 463.200,233.200 463.560,233.200 464.000 M243.200 464.800 C 243.200 465.240,243.380 465.600,243.600 465.600 C 243.820 465.600,244.000 465.240,244.000 464.800 C 244.000 464.360,243.820 464.000,243.600 464.000 C 243.380 464.000,243.200 464.360,243.200 464.800 M232.406 552.100 C 232.411 553.603,232.522 554.030,232.800 553.600 C 233.312 552.808,233.312 550.000,232.800 550.000 C 232.580 550.000,232.403 550.945,232.406 552.100 M216.400 560.176 C 216.400 562.192,216.564 563.600,216.800 563.600 C 217.033 563.600,217.200 562.275,217.200 560.424 C 217.200 558.677,217.020 557.136,216.800 557.000 C 216.545 556.843,216.400 557.996,216.400 560.176 " stroke="none" fill="#060606" fill-rule="evenodd"></path><path id="path2" d="" stroke="none" fill="#1003c28" fill-rule="evenodd"></path><path id="path3" d="" stroke="none" fill="#1003c28" fill-rule="evenodd"></path><path id="path4" d="" stroke="none" fill="#1003c28" fill-rule="evenodd"></path></g></svg>