<svg id="svg" version="1.1" xmlns="http://www.w3.org/2000/svg" xmlns:xlink="http://www.w3.org/1999/xlink" width="400" height="582.5198637911465" viewBox="0, 0, 400,582.5198637911465"><g id="svgg"><path id="path0" d="M289.995 0.523 C 289.883 0.644,286.289 0.827,282.009 0.930 C 277.366 1.042,274.174 1.279,274.095 1.516 C 274.021 1.736,273.623 1.826,273.208 1.718 C 272.270 1.473,262.682 2.756,262.403 3.164 C 262.292 3.328,260.316 3.771,258.013 4.148 C 255.710 4.526,253.730 4.962,253.613 5.117 C 253.496 5.273,252.606 5.437,251.635 5.482 C 250.664 5.527,249.764 5.707,249.635 5.882 C 249.506 6.057,248.606 6.237,247.635 6.282 C 246.664 6.327,245.764 6.518,245.635 6.705 C 245.506 6.893,242.880 7.650,239.800 8.389 C 236.720 9.127,234.110 9.859,234.000 10.016 C 233.890 10.173,232.270 10.705,230.400 11.199 C 228.530 11.693,226.325 12.277,225.500 12.497 C 224.675 12.717,224.000 13.066,224.000 13.272 C 224.000 13.478,223.812 13.531,223.582 13.389 C 223.353 13.247,222.948 13.302,222.682 13.510 C 222.417 13.718,220.400 14.475,218.200 15.191 C 216.000 15.908,214.110 16.620,214.000 16.775 C 213.890 16.930,212.450 17.475,210.800 17.988 C 209.150 18.501,207.629 19.073,207.420 19.260 C 207.211 19.447,206.735 19.600,206.363 19.600 C 205.990 19.600,205.599 19.825,205.493 20.100 C 205.387 20.375,204.423 20.855,203.350 21.168 C 201.130 21.814,193.065 25.566,192.874 26.042 C 192.805 26.214,192.511 26.264,192.221 26.153 C 191.346 25.817,189.603 27.723,189.865 28.728 C 189.991 29.208,190.353 29.600,190.670 29.600 C 190.988 29.600,191.144 29.768,191.017 29.972 C 190.891 30.177,190.990 30.470,191.238 30.624 C 191.486 30.777,191.804 30.717,191.945 30.490 C 192.085 30.263,193.640 29.683,195.400 29.200 C 197.160 28.717,199.013 28.160,199.519 27.961 C 200.024 27.762,200.776 27.600,201.190 27.600 C 201.604 27.600,202.181 27.373,202.471 27.096 C 202.762 26.819,205.160 25.982,207.800 25.237 C 210.440 24.492,212.805 23.724,213.055 23.530 C 213.305 23.336,215.270 22.730,217.421 22.185 C 219.573 21.639,221.822 20.948,222.421 20.650 C 223.019 20.351,226.364 19.410,229.854 18.558 C 233.344 17.707,236.290 16.891,236.400 16.745 C 236.616 16.459,247.793 14.000,248.878 14.000 C 249.238 14.000,249.593 13.825,249.667 13.611 C 249.740 13.397,251.195 13.016,252.900 12.763 C 254.605 12.510,256.000 12.134,256.000 11.928 C 256.000 11.722,256.166 11.655,256.369 11.781 C 256.978 12.157,267.200 10.688,267.204 10.224 C 267.206 9.966,268.579 9.758,270.704 9.692 C 272.627 9.632,274.250 9.438,274.311 9.260 C 274.372 9.082,275.432 9.020,276.668 9.122 C 278.281 9.256,278.835 9.180,278.634 8.854 C 278.479 8.604,278.543 8.400,278.776 8.400 C 279.009 8.400,279.200 8.535,279.200 8.700 C 279.200 9.115,286.170 8.799,286.327 8.377 C 286.397 8.190,288.242 8.146,290.427 8.279 C 293.297 8.454,294.400 8.393,294.400 8.060 C 294.400 7.775,295.158 7.600,296.400 7.600 C 297.629 7.600,298.400 7.776,298.400 8.055 C 298.400 8.377,299.451 8.451,301.984 8.307 C 303.955 8.194,305.620 8.247,305.684 8.424 C 305.748 8.602,307.823 8.804,310.296 8.873 C 312.770 8.943,314.795 9.112,314.796 9.248 C 314.798 9.385,315.923 9.624,317.296 9.779 C 318.669 9.934,319.974 10.205,320.196 10.380 C 320.418 10.556,321.449 10.822,322.486 10.972 C 325.965 11.475,332.096 13.108,332.408 13.614 C 332.580 13.891,333.094 14.016,333.559 13.895 C 334.022 13.774,334.400 13.818,334.400 13.992 C 334.400 14.167,335.690 14.733,337.266 15.250 C 338.842 15.766,340.343 16.400,340.600 16.657 C 340.858 16.915,342.538 17.798,344.334 18.619 C 346.130 19.440,347.600 20.254,347.600 20.429 C 347.600 20.603,347.946 20.856,348.368 20.990 C 350.680 21.724,359.405 29.055,362.400 32.781 C 363.170 33.739,364.205 35.016,364.700 35.619 C 365.195 36.222,365.603 36.870,365.607 37.058 C 365.611 37.246,366.039 37.803,366.560 38.297 C 367.080 38.790,367.788 39.789,368.134 40.518 C 368.480 41.246,369.131 42.176,369.581 42.583 C 370.032 42.991,370.400 43.503,370.400 43.722 C 370.400 44.310,372.518 48.578,372.888 48.734 C 373.062 48.808,373.103 49.033,372.979 49.234 C 372.855 49.435,372.943 49.600,373.176 49.600 C 373.409 49.600,373.600 49.790,373.600 50.022 C 373.600 50.254,373.965 51.244,374.410 52.222 C 374.856 53.200,375.331 54.555,375.467 55.234 C 375.603 55.913,375.958 56.563,376.257 56.677 C 376.556 56.792,376.800 57.218,376.800 57.624 C 376.800 58.030,376.961 58.776,377.158 59.281 C 377.703 60.678,378.800 65.061,379.416 68.300 C 379.552 69.015,379.874 69.600,380.132 69.600 C 380.398 69.600,380.619 70.247,380.645 71.100 C 380.713 73.353,381.619 78.539,382.031 79.037 C 382.230 79.277,382.285 79.581,382.154 79.713 C 381.652 80.215,382.463 85.600,383.041 85.600 C 383.348 85.600,383.600 85.870,383.600 86.200 C 383.600 86.530,383.420 86.800,383.200 86.800 C 382.978 86.800,382.800 87.867,382.800 89.200 C 382.800 90.533,382.978 91.600,383.200 91.600 C 383.422 91.600,383.600 92.667,383.600 94.000 C 383.600 95.320,383.735 96.400,383.900 96.400 C 384.065 96.400,384.200 101.350,384.200 107.400 C 384.200 113.450,384.065 118.400,383.900 118.400 C 383.735 118.400,383.600 119.390,383.600 120.600 C 383.600 121.810,383.420 122.800,383.200 122.800 C 382.978 122.800,382.800 123.867,382.800 125.200 C 382.800 126.533,382.978 127.600,383.200 127.600 C 383.420 127.600,383.600 127.960,383.600 128.400 C 383.600 128.840,383.351 129.200,383.047 129.200 C 382.416 129.200,381.761 133.816,382.196 135.188 C 382.338 135.635,382.285 136.000,382.079 136.000 C 381.751 136.000,381.291 138.413,380.517 144.200 C 380.399 145.080,380.116 145.918,379.889 146.062 C 379.661 146.207,379.458 147.107,379.437 148.062 C 379.417 149.018,379.248 149.911,379.063 150.046 C 378.878 150.182,378.698 151.036,378.663 151.944 C 378.628 152.852,378.499 153.596,378.375 153.598 C 378.252 153.599,377.824 155.040,377.425 156.800 C 377.025 158.560,376.571 160.000,376.417 160.000 C 376.262 160.000,375.917 160.855,375.651 161.900 C 375.385 162.945,374.978 164.430,374.747 165.200 C 374.515 165.970,374.297 167.050,374.263 167.600 C 374.228 168.150,373.873 168.901,373.474 169.270 C 373.074 169.638,372.778 170.051,372.815 170.187 C 372.893 170.470,372.113 172.659,371.567 173.695 C 371.365 174.077,371.200 174.741,371.200 175.171 C 371.200 175.601,371.020 176.064,370.800 176.200 C 370.580 176.336,370.400 176.784,370.400 177.195 C 370.400 177.606,370.167 178.181,369.883 178.471 C 369.599 178.762,369.131 179.630,368.843 180.400 C 368.099 182.390,367.561 183.693,367.153 184.495 C 366.959 184.877,366.800 185.467,366.800 185.807 C 366.800 186.147,366.530 186.529,366.200 186.655 C 365.870 186.782,365.600 187.069,365.600 187.293 C 365.600 187.805,363.521 192.530,363.176 192.800 C 362.807 193.090,360.400 198.236,360.400 198.737 C 360.400 198.970,360.175 199.304,359.900 199.480 C 359.625 199.656,358.691 201.240,357.823 203.000 C 356.956 204.760,356.009 206.440,355.718 206.734 C 355.427 207.028,354.834 208.048,354.400 209.000 C 353.966 209.952,353.383 210.972,353.105 211.266 C 352.345 212.068,350.400 215.133,350.400 215.529 C 350.400 215.720,350.045 216.198,349.610 216.591 C 349.176 216.984,348.702 217.687,348.558 218.153 C 348.414 218.619,347.329 220.377,346.148 222.061 C 344.967 223.744,344.000 225.278,344.000 225.470 C 344.000 225.661,343.494 226.444,342.876 227.209 C 342.258 227.974,341.343 229.275,340.843 230.100 C 340.344 230.925,339.769 231.600,339.567 231.600 C 339.365 231.600,339.200 231.758,339.200 231.952 C 339.200 232.438,336.683 236.574,335.927 237.331 C 335.587 237.671,334.738 239.130,334.042 240.574 C 333.346 242.019,332.621 243.200,332.432 243.200 C 332.243 243.200,331.718 243.988,331.265 244.952 C 330.812 245.916,329.986 247.375,329.429 248.195 C 328.873 249.015,327.919 250.678,327.309 251.890 C 325.531 255.422,325.426 255.600,325.105 255.600 C 324.937 255.600,324.800 255.836,324.800 256.125 C 324.800 256.414,324.440 257.395,324.000 258.306 C 323.560 259.216,323.200 260.135,323.200 260.347 C 323.200 260.560,323.001 260.800,322.758 260.881 C 322.515 260.962,322.083 261.652,321.798 262.414 C 321.513 263.176,320.875 264.880,320.381 266.200 C 319.886 267.520,319.363 268.690,319.217 268.800 C 318.857 269.071,316.800 274.973,316.800 275.734 C 316.800 276.069,316.542 276.601,316.227 276.916 C 315.912 277.231,314.976 280.259,314.148 283.645 C 313.320 287.030,312.531 289.890,312.394 290.000 C 312.257 290.110,311.942 291.460,311.695 293.000 C 311.275 295.617,311.029 297.407,310.004 305.316 C 309.782 307.030,309.600 309.580,309.600 310.983 C 309.600 312.386,309.441 313.593,309.246 313.667 C 308.641 313.895,308.488 319.600,309.087 319.600 C 309.418 319.600,309.600 320.163,309.600 321.187 C 309.600 322.410,309.467 322.724,309.020 322.552 C 308.389 322.310,307.870 334.853,308.500 335.133 C 308.918 335.319,308.877 337.504,308.453 337.667 C 308.001 337.840,307.612 351.600,308.059 351.600 C 308.247 351.600,308.400 352.680,308.400 354.000 C 308.400 355.320,308.246 356.400,308.057 356.400 C 307.868 356.400,307.609 358.785,307.481 361.700 C 307.077 370.932,306.351 380.582,306.044 380.795 C 305.881 380.908,305.714 381.810,305.671 382.800 C 305.629 383.790,305.424 386.220,305.217 388.200 C 305.009 390.180,304.638 393.960,304.391 396.600 C 304.144 399.240,303.782 402.570,303.587 404.000 C 303.392 405.430,303.117 407.905,302.975 409.500 C 302.834 411.095,302.557 412.400,302.359 412.400 C 302.162 412.400,302.000 412.970,302.000 413.667 C 302.000 414.364,301.828 416.029,301.618 417.367 C 301.408 418.705,300.852 422.590,300.383 426.000 C 299.914 429.410,299.365 432.513,299.164 432.896 C 298.962 433.279,298.627 434.719,298.419 436.096 C 298.210 437.473,297.856 439.590,297.632 440.800 C 297.408 442.010,296.896 444.852,296.496 447.117 C 296.095 449.381,295.657 451.124,295.523 450.990 C 295.389 450.856,295.162 451.523,295.019 452.473 C 294.692 454.636,294.009 457.839,293.550 459.360 C 293.358 459.998,293.200 460.870,293.200 461.299 C 293.200 461.728,292.953 462.646,292.652 463.340 C 292.020 464.792,291.574 466.379,290.386 471.400 C 289.918 473.380,289.295 475.540,289.002 476.200 C 288.710 476.860,288.277 478.120,288.041 479.000 C 286.942 483.096,285.863 486.636,285.604 487.000 C 285.447 487.220,284.999 488.390,284.609 489.600 C 284.219 490.810,283.742 492.213,283.550 492.719 C 283.357 493.224,283.200 493.976,283.200 494.390 C 283.200 494.804,282.951 495.392,282.646 495.697 C 282.342 496.001,281.416 498.219,280.588 500.625 C 279.761 503.031,278.975 505.090,278.841 505.200 C 278.520 505.465,277.878 506.881,276.755 509.800 C 276.248 511.120,275.420 512.810,274.916 513.556 C 274.412 514.302,274.000 515.129,274.000 515.394 C 274.000 515.978,272.928 518.226,271.994 519.600 C 271.620 520.150,270.800 521.770,270.173 523.200 C 269.545 524.630,268.919 525.890,268.782 526.000 C 268.645 526.110,267.946 527.370,267.229 528.800 C 266.511 530.230,265.691 531.670,265.408 532.000 C 265.124 532.330,264.428 533.525,263.861 534.656 C 263.295 535.786,262.599 536.956,262.316 537.256 C 261.796 537.804,259.200 541.925,259.200 542.202 C 259.200 542.284,258.660 542.942,258.000 543.664 C 257.340 544.387,256.800 545.168,256.800 545.400 C 256.800 545.632,256.254 546.447,255.587 547.211 C 249.808 553.829,248.911 554.800,248.578 554.800 C 248.412 554.800,247.660 555.520,246.907 556.400 C 246.154 557.280,245.288 558.000,244.983 558.000 C 244.678 558.000,244.255 558.323,244.044 558.718 C 243.833 559.113,242.656 559.961,241.430 560.602 C 240.203 561.244,239.200 561.915,239.200 562.094 C 239.200 562.273,238.708 562.607,238.106 562.836 C 237.504 563.065,236.469 563.496,235.806 563.794 C 235.143 564.092,234.181 564.457,233.669 564.605 L 232.738 564.874 232.869 559.236 C 232.941 556.136,232.865 553.599,232.700 553.599 C 232.535 553.600,232.400 553.150,232.400 552.600 C 232.400 552.050,232.607 551.600,232.860 551.600 C 233.191 551.600,233.249 550.600,233.066 548.031 C 232.899 545.672,232.956 544.415,233.234 544.322 C 233.490 544.237,233.683 542.384,233.727 539.591 C 233.767 537.066,233.965 534.881,234.166 534.736 C 234.367 534.590,234.547 532.836,234.566 530.837 C 234.585 528.838,234.735 527.202,234.900 527.202 C 235.065 527.201,235.200 526.570,235.200 525.800 C 235.200 525.030,235.380 524.400,235.600 524.400 C 236.121 524.400,236.121 521.722,235.600 521.400 C 235.008 521.034,235.115 520.400,235.768 520.400 C 236.407 520.400,237.108 515.623,236.592 514.787 C 236.430 514.525,236.511 514.179,236.771 514.018 C 237.049 513.846,237.277 512.581,237.323 510.962 C 237.365 509.443,237.556 508.086,237.747 507.947 C 237.938 507.808,238.152 506.489,238.224 505.016 C 238.295 503.543,238.578 502.067,238.853 501.736 C 239.128 501.405,239.363 500.024,239.376 498.667 C 239.389 497.310,239.538 496.097,239.707 495.972 C 239.876 495.847,240.056 494.497,240.107 492.972 C 240.158 491.447,240.352 490.089,240.537 489.953 C 240.723 489.818,240.903 488.334,240.937 486.657 C 240.972 484.980,241.135 483.606,241.300 483.604 C 241.465 483.602,241.600 482.981,241.600 482.224 C 241.600 481.467,241.780 480.736,242.000 480.600 C 242.220 480.464,242.400 479.723,242.400 478.953 C 242.400 478.121,242.238 477.653,242.000 477.800 C 241.780 477.936,241.600 477.677,241.600 477.224 C 241.600 476.771,241.856 476.400,242.168 476.400 C 242.818 476.400,243.461 471.893,243.046 470.242 C 242.904 469.675,242.987 469.204,243.245 469.118 C 243.530 469.023,243.708 467.339,243.744 464.385 C 243.775 461.863,243.970 459.678,244.177 459.529 C 244.626 459.206,244.748 423.600,244.300 423.600 C 244.135 423.600,244.000 423.150,244.000 422.600 C 244.000 422.050,244.159 421.600,244.354 421.600 C 244.736 421.600,244.443 416.330,244.043 416.000 C 243.909 415.890,243.790 413.970,243.777 411.734 C 243.762 409.173,243.575 407.452,243.270 407.084 C 243.004 406.764,242.900 406.205,243.039 405.843 C 243.535 404.550,242.795 400.000,242.088 400.000 C 241.584 400.000,241.547 399.893,241.920 399.520 C 242.501 398.939,242.556 396.944,242.000 396.600 C 241.780 396.464,241.600 396.003,241.600 395.576 C 241.600 395.149,241.465 394.800,241.300 394.800 C 241.135 394.800,240.994 394.035,240.986 393.100 C 240.969 390.926,239.315 382.321,238.857 382.025 C 238.667 381.901,238.407 381.260,238.280 380.600 C 237.564 376.874,235.903 371.023,235.483 370.745 C 235.271 370.604,235.221 370.289,235.372 370.045 C 235.524 369.800,235.485 369.600,235.288 369.600 C 235.090 369.600,234.699 368.835,234.418 367.900 C 234.138 366.965,233.770 365.840,233.600 365.400 C 233.430 364.960,233.065 363.844,232.788 362.921 C 232.512 361.997,232.041 361.148,231.743 361.033 C 231.444 360.919,231.199 360.594,231.198 360.313 C 231.195 359.491,229.502 355.618,227.913 352.800 C 227.107 351.370,226.316 349.854,226.154 349.431 C 225.993 349.007,225.614 348.377,225.313 348.031 C 225.012 347.684,223.616 345.600,222.212 343.400 C 220.808 341.200,219.205 338.860,218.649 338.200 C 215.310 334.237,214.093 332.923,209.271 328.079 C 203.959 322.743,203.125 322.120,204.067 324.187 C 204.494 325.124,204.468 325.330,203.882 325.658 C 202.916 326.199,203.007 326.476,204.734 328.237 C 205.577 329.098,206.342 330.001,206.434 330.244 C 206.621 330.743,209.278 334.029,210.800 335.645 C 211.809 336.716,212.213 337.322,213.680 339.955 C 214.123 340.750,214.826 341.722,215.243 342.116 C 215.659 342.509,216.000 343.018,216.000 343.246 C 216.000 343.474,216.695 344.862,217.545 346.330 C 218.395 347.799,219.603 350.170,220.229 351.600 C 220.856 353.030,221.509 354.300,221.681 354.422 C 221.854 354.544,222.595 356.344,223.329 358.422 C 224.063 360.500,224.867 362.560,225.116 363.000 C 225.535 363.741,227.185 369.161,227.764 371.700 C 227.902 372.305,228.192 372.800,228.408 372.800 C 228.623 372.800,228.800 373.135,228.800 373.545 C 228.800 373.955,229.146 375.710,229.568 377.445 C 229.991 379.180,230.655 382.490,231.045 384.800 C 231.434 387.110,231.874 389.090,232.023 389.200 C 232.637 389.655,234.773 410.551,234.792 416.300 C 234.798 418.074,234.944 418.771,235.296 418.700 C 235.681 418.623,235.798 420.964,235.816 429.100 C 235.833 436.895,235.718 439.600,235.369 439.600 C 235.044 439.600,234.877 440.857,234.828 443.672 C 234.790 445.912,234.660 447.903,234.539 448.099 C 234.419 448.294,234.625 448.676,234.998 448.949 C 235.430 449.265,235.609 449.800,235.492 450.422 C 235.317 451.358,235.307 451.352,235.254 450.300 C 235.127 447.718,234.474 449.511,234.237 453.100 C 233.919 457.885,233.291 464.738,232.781 468.964 C 232.572 470.704,232.400 472.819,232.400 473.664 C 232.400 474.509,232.241 475.200,232.047 475.200 C 231.852 475.200,231.566 476.415,231.410 477.900 C 231.255 479.385,230.692 483.480,230.159 487.000 C 229.626 490.520,229.075 494.210,228.934 495.200 C 228.793 496.190,228.551 497.090,228.396 497.200 C 228.242 497.310,227.921 498.660,227.683 500.200 C 226.803 505.897,225.492 512.606,225.221 512.800 C 224.959 512.987,222.912 522.241,222.500 525.100 C 222.397 525.815,222.142 526.400,221.933 526.400 C 221.724 526.400,221.676 526.600,221.828 526.845 C 221.979 527.089,221.939 527.404,221.739 527.545 C 221.384 527.794,218.780 540.309,218.793 541.700 C 218.797 542.085,218.600 542.400,218.355 542.400 C 218.087 542.400,217.980 542.880,218.085 543.600 C 218.182 544.260,218.139 544.800,217.989 544.800 C 217.728 544.800,217.103 549.766,216.593 555.900 C 216.432 557.829,216.494 558.800,216.776 558.800 C 217.023 558.800,217.200 559.716,217.200 561.000 C 217.200 562.210,217.037 563.200,216.838 563.200 C 216.446 563.200,216.591 565.209,217.255 569.000 C 218.124 573.953,221.296 578.702,225.400 581.192 C 227.192 582.278,238.739 582.710,240.839 581.769 C 243.734 580.472,245.881 579.335,246.507 578.768 C 246.895 578.416,247.705 577.879,248.307 577.575 C 249.444 576.999,250.833 575.886,255.178 572.067 C 259.381 568.372,267.287 560.075,268.200 558.401 C 268.420 557.997,269.095 557.279,269.700 556.805 C 270.305 556.330,270.800 555.725,270.800 555.460 C 270.800 555.195,271.381 554.353,272.090 553.589 C 273.690 551.867,274.731 550.498,276.873 547.300 C 277.793 545.925,278.686 544.800,278.856 544.800 C 279.026 544.800,279.901 543.540,280.800 542.000 C 281.699 540.460,282.586 539.200,282.771 539.200 C 282.956 539.200,283.213 538.885,283.342 538.500 C 283.645 537.603,284.982 535.272,285.893 534.056 C 286.282 533.536,287.050 532.275,287.600 531.253 C 288.150 530.230,288.973 528.855,289.428 528.197 C 289.884 527.539,290.737 525.965,291.323 524.700 C 291.910 523.435,292.572 522.400,292.795 522.400 C 293.018 522.400,293.200 522.172,293.200 521.894 C 293.200 521.411,295.231 516.857,296.007 515.600 C 296.415 514.939,297.246 513.206,298.259 510.900 C 298.622 510.075,299.038 509.310,299.184 509.200 C 299.330 509.090,299.862 507.920,300.367 506.600 C 300.872 505.280,301.782 503.120,302.390 501.800 C 302.999 500.480,304.005 497.960,304.626 496.200 C 305.247 494.440,305.872 492.910,306.014 492.800 C 306.157 492.690,306.864 490.710,307.585 488.400 C 308.306 486.090,309.022 484.110,309.175 484.000 C 309.503 483.764,311.098 478.508,312.058 474.500 C 312.282 473.565,312.610 472.800,312.787 472.800 C 312.964 472.800,313.209 472.305,313.330 471.700 C 313.451 471.095,313.728 469.880,313.945 469.000 C 314.161 468.120,314.643 466.140,315.015 464.600 C 315.387 463.060,315.939 461.260,316.241 460.600 C 316.789 459.405,318.066 454.136,318.593 450.900 C 318.746 449.965,319.011 449.200,319.182 449.200 C 319.354 449.200,319.600 448.525,319.728 447.700 C 319.857 446.875,320.214 445.030,320.523 443.600 C 320.832 442.170,321.414 439.155,321.817 436.900 C 322.221 434.645,322.697 432.800,322.875 432.800 C 323.054 432.800,323.200 432.395,323.201 431.900 C 323.201 431.405,323.546 429.110,323.967 426.800 C 324.389 424.490,324.945 421.070,325.203 419.200 C 325.462 417.330,325.837 415.487,326.038 415.104 C 326.389 414.432,326.744 412.388,327.616 406.000 C 327.842 404.350,328.199 401.740,328.409 400.200 C 328.620 398.660,328.911 396.320,329.057 395.000 C 329.203 393.680,329.454 392.510,329.615 392.400 C 330.038 392.112,331.120 382.283,332.015 370.600 C 332.267 367.300,332.619 364.447,332.797 364.261 C 332.974 364.074,333.020 362.481,332.900 360.721 C 332.763 358.722,332.835 357.423,333.092 357.261 C 333.739 356.851,333.954 351.132,333.314 351.378 C 332.946 351.519,332.817 351.151,332.860 350.087 C 332.909 348.880,332.951 348.807,333.087 349.700 C 333.414 351.864,334.001 350.747,334.032 347.900 C 334.049 346.305,334.194 343.470,334.353 341.600 C 334.513 339.730,334.498 338.140,334.322 338.067 C 333.858 337.875,333.925 336.800,334.400 336.800 C 334.624 336.800,334.814 335.612,334.832 334.100 C 334.849 332.615,334.995 329.870,335.156 328.000 C 335.350 325.743,335.306 324.489,335.024 324.270 C 334.733 324.043,334.757 323.876,335.100 323.736 C 335.436 323.600,335.600 322.572,335.600 320.600 C 335.600 318.987,335.757 317.607,335.950 317.533 C 336.142 317.460,336.416 315.240,336.560 312.600 C 337.020 304.129,338.888 289.737,339.597 289.200 C 339.743 289.090,340.177 287.650,340.562 286.000 C 341.435 282.260,342.502 278.664,342.817 278.400 C 342.948 278.290,343.720 276.310,344.533 274.000 C 345.345 271.690,346.188 269.740,346.405 269.667 C 346.622 269.593,346.800 269.218,346.800 268.833 C 346.800 268.448,346.916 268.017,347.057 267.876 C 347.438 267.495,349.196 263.081,349.198 262.500 C 349.199 262.225,349.391 262.000,349.624 262.000 C 349.857 262.000,349.936 261.820,349.800 261.600 C 349.664 261.380,349.716 261.200,349.916 261.200 C 350.116 261.200,350.792 259.985,351.418 258.500 C 352.044 257.015,352.702 255.740,352.881 255.666 C 353.059 255.592,353.103 255.367,352.979 255.166 C 352.855 254.965,352.951 254.800,353.193 254.800 C 353.435 254.800,354.173 253.675,354.832 252.300 C 355.491 250.925,357.007 248.090,358.200 246.000 C 359.393 243.910,360.939 241.120,361.636 239.800 C 362.333 238.480,363.030 237.310,363.185 237.200 C 363.340 237.090,364.077 235.830,364.824 234.400 C 365.570 232.970,366.309 231.706,366.465 231.592 C 366.622 231.478,367.306 230.263,367.986 228.892 C 368.666 227.521,369.392 226.400,369.599 226.400 C 369.806 226.400,369.871 226.130,369.745 225.800 C 369.618 225.470,369.685 225.200,369.894 225.200 C 370.102 225.200,370.843 224.030,371.540 222.600 C 372.238 221.170,372.986 220.000,373.204 220.000 C 373.422 220.000,373.600 219.803,373.600 219.562 C 373.600 218.795,376.315 213.368,376.971 212.824 C 377.317 212.537,377.600 212.000,377.600 211.631 C 377.600 211.262,377.756 210.789,377.947 210.580 C 378.138 210.371,378.613 209.345,379.002 208.300 C 379.391 207.255,379.831 206.400,379.981 206.400 C 380.130 206.400,380.652 205.365,381.140 204.100 C 381.628 202.835,382.496 200.900,383.070 199.800 C 384.156 197.719,385.927 193.258,386.286 191.700 C 386.400 191.205,386.652 190.800,386.847 190.800 C 387.041 190.800,387.200 190.451,387.200 190.024 C 387.200 189.597,387.355 189.151,387.544 189.034 C 387.734 188.917,388.203 187.692,388.587 186.311 C 388.971 184.930,389.707 182.900,390.223 181.800 C 390.738 180.700,391.558 178.225,392.045 176.300 C 392.531 174.375,393.075 172.800,393.252 172.800 C 393.430 172.800,393.464 172.512,393.329 172.160 C 393.194 171.807,393.282 171.397,393.524 171.247 C 393.767 171.097,394.538 168.370,395.239 165.187 C 395.940 162.004,396.638 159.310,396.790 159.200 C 397.096 158.979,398.586 150.030,399.156 145.000 C 400.303 134.866,399.953 86.687,398.737 87.439 C 398.522 87.572,398.481 87.216,398.639 86.588 C 398.946 85.364,397.223 74.400,396.724 74.400 C 396.546 74.400,396.398 73.995,396.395 73.500 C 396.388 72.032,394.049 62.341,393.560 61.752 C 393.313 61.454,393.215 60.938,393.343 60.605 C 393.470 60.272,393.433 60.000,393.259 60.000 C 393.085 60.000,392.355 58.110,391.637 55.800 C 390.920 53.490,390.168 51.600,389.966 51.600 C 389.765 51.600,389.600 51.336,389.600 51.014 C 389.600 50.691,389.348 49.836,389.040 49.114 C 388.733 48.391,388.165 47.035,387.780 46.100 C 387.394 45.165,386.971 44.399,386.839 44.398 C 386.708 44.398,386.068 43.132,385.418 41.586 C 384.769 40.041,383.957 38.466,383.616 38.088 C 383.274 37.710,382.772 36.950,382.500 36.400 C 381.451 34.280,380.534 32.900,379.293 31.575 C 378.584 30.819,378.003 30.029,378.002 29.820 C 377.998 29.048,366.929 18.000,366.158 18.000 C 365.876 18.000,365.410 17.680,365.123 17.289 C 364.835 16.898,363.666 15.987,362.525 15.264 C 361.383 14.540,360.393 13.825,360.325 13.674 C 360.097 13.173,349.832 8.135,347.900 7.575 C 346.855 7.273,346.000 6.896,346.000 6.737 C 346.000 6.439,341.082 4.884,337.200 3.954 C 335.990 3.663,334.910 3.310,334.800 3.168 C 334.469 2.741,327.168 1.527,326.492 1.786 C 326.147 1.919,325.725 1.802,325.555 1.528 C 325.206 0.962,324.588 0.934,304.200 0.560 C 296.500 0.419,290.108 0.402,289.995 0.523 M76.753 33.100 C 76.727 33.265,76.727 33.535,76.753 33.700 C 76.779 33.865,76.440 34.000,76.000 34.000 C 75.560 34.000,75.200 33.820,75.200 33.600 C 75.200 33.380,74.300 33.200,73.200 33.200 C 72.100 33.200,71.200 33.380,71.200 33.600 C 71.200 33.820,70.480 34.000,69.600 34.000 C 68.720 34.000,68.000 34.192,68.000 34.427 C 68.000 34.675,67.657 34.745,67.181 34.594 C 65.870 34.178,54.507 36.334,53.400 37.209 C 53.180 37.383,51.611 37.929,49.912 38.421 C 48.113 38.943,46.929 39.485,47.074 39.720 C 47.211 39.942,47.129 40.004,46.892 39.857 C 46.655 39.710,45.680 39.997,44.725 40.495 C 43.771 40.993,42.137 41.742,41.095 42.160 C 40.053 42.578,39.200 43.068,39.200 43.248 C 39.200 43.428,38.930 43.471,38.600 43.345 C 38.270 43.218,38.000 43.319,38.000 43.570 C 38.000 43.820,37.685 44.144,37.300 44.290 C 33.161 45.854,20.654 57.794,17.600 63.097 C 17.270 63.670,16.692 64.460,16.317 64.853 C 15.941 65.245,15.262 66.294,14.808 67.183 C 14.355 68.073,13.797 68.800,13.568 68.800 C 13.340 68.800,13.276 69.000,13.428 69.245 C 13.579 69.489,13.534 69.804,13.328 69.945 C 12.810 70.297,10.800 73.990,10.800 74.588 C 10.800 74.857,10.441 75.401,10.002 75.798 C 9.563 76.195,9.038 77.078,8.834 77.760 C 8.205 79.865,6.866 83.238,6.464 83.731 C 6.253 83.989,5.510 86.180,4.813 88.600 C 4.115 91.020,3.345 93.407,3.102 93.905 C 2.859 94.403,2.646 95.420,2.630 96.165 C 2.613 96.911,2.485 97.450,2.345 97.364 C 2.010 97.159,1.484 100.688,1.778 101.165 C 1.903 101.367,1.801 101.600,1.552 101.683 C 0.778 101.941,0.293 125.192,0.740 140.600 C 0.882 145.517,1.870 154.042,2.338 154.400 C 2.482 154.510,2.648 155.500,2.706 156.600 C 2.765 157.700,2.990 158.660,3.206 158.733 C 3.423 158.807,3.600 159.161,3.600 159.521 C 3.600 160.805,6.118 170.605,6.514 170.860 C 6.735 171.002,6.810 171.396,6.681 171.734 C 6.551 172.072,6.607 172.405,6.806 172.474 C 7.005 172.543,7.657 174.220,8.255 176.200 C 8.854 178.180,9.581 180.084,9.872 180.431 C 10.162 180.779,10.404 181.229,10.408 181.431 C 10.430 182.415,13.109 188.761,13.393 188.500 C 13.572 188.335,13.618 188.605,13.497 189.100 C 13.375 189.595,13.422 190.000,13.602 190.000 C 13.782 190.000,14.427 191.305,15.036 192.900 C 15.644 194.495,16.335 195.980,16.571 196.200 C 16.807 196.420,17.199 197.050,17.443 197.600 C 17.687 198.150,18.272 199.382,18.743 200.338 C 19.214 201.294,19.600 202.329,19.600 202.638 C 19.600 202.947,19.778 203.200,19.995 203.200 C 20.212 203.200,21.048 204.595,21.853 206.300 C 22.659 208.005,23.460 209.494,23.633 209.608 C 23.807 209.722,24.498 210.921,25.168 212.272 C 25.839 213.624,26.525 214.790,26.694 214.865 C 26.862 214.939,27.593 216.215,28.317 217.700 C 29.041 219.185,29.769 220.400,29.934 220.400 C 30.098 220.400,30.509 220.985,30.846 221.700 C 32.073 224.303,33.383 226.583,34.015 227.215 C 34.371 227.571,35.069 228.703,35.567 229.731 C 36.064 230.759,36.635 231.600,36.836 231.600 C 37.036 231.600,37.200 231.793,37.200 232.028 C 37.200 232.263,37.740 233.241,38.400 234.200 C 39.060 235.159,39.600 236.117,39.600 236.329 C 39.600 236.541,39.831 236.803,40.114 236.911 C 40.396 237.020,41.050 237.931,41.567 238.937 C 42.084 239.942,42.798 241.088,43.154 241.482 C 43.995 242.417,45.784 245.206,46.115 246.100 C 46.258 246.485,46.571 246.800,46.811 246.800 C 47.051 246.800,47.136 246.980,47.000 247.200 C 46.864 247.420,46.926 247.600,47.138 247.600 C 47.350 247.600,48.082 248.590,48.765 249.800 C 49.448 251.010,50.185 252.000,50.403 252.000 C 50.622 252.000,50.800 252.168,50.800 252.373 C 50.800 252.908,53.234 256.777,54.300 257.937 C 54.795 258.476,55.200 259.084,55.200 259.288 C 55.200 259.492,56.169 261.058,57.353 262.768 C 58.538 264.477,59.630 266.264,59.780 266.738 C 59.931 267.212,60.212 267.600,60.406 267.600 C 60.710 267.600,61.673 269.262,63.360 272.697 C 63.602 273.190,63.941 273.595,64.113 273.597 C 64.285 273.599,64.961 274.755,65.614 276.167 C 66.267 277.579,66.937 278.794,67.101 278.867 C 67.265 278.940,68.026 280.260,68.791 281.800 C 69.556 283.340,70.411 284.838,70.691 285.129 C 70.971 285.419,71.200 285.968,71.200 286.349 C 71.200 286.729,71.358 287.211,71.552 287.420 C 71.745 287.629,72.125 288.520,72.396 289.400 C 72.666 290.280,73.251 291.630,73.696 292.400 C 74.480 293.759,75.678 297.337,76.440 300.600 C 76.646 301.480,76.975 302.560,77.172 303.000 C 78.713 306.449,78.688 320.800,77.141 320.800 C 76.988 320.800,76.739 321.385,76.586 322.100 C 76.205 323.891,74.390 329.311,74.008 329.800 C 73.837 330.020,73.041 332.076,72.240 334.368 C 71.440 336.661,70.628 338.731,70.436 338.968 C 70.003 339.506,67.600 346.992,67.600 347.805 C 67.600 348.132,67.409 348.400,67.176 348.400 C 66.943 348.400,66.876 348.600,67.028 348.845 C 67.179 349.089,67.139 349.404,66.939 349.545 C 66.572 349.803,64.791 356.490,64.794 357.600 C 64.794 357.930,64.561 358.650,64.276 359.200 C 63.606 360.489,63.081 362.560,61.742 369.200 C 61.143 372.170,60.539 374.690,60.400 374.800 C 60.142 375.004,58.689 384.189,58.059 389.600 C 57.813 391.714,57.841 392.687,58.155 392.894 C 58.467 393.100,58.451 393.190,58.100 393.194 C 57.743 393.198,57.600 394.094,57.600 396.320 C 57.600 398.213,57.411 399.629,57.120 399.920 C 56.747 400.293,56.791 400.400,57.320 400.400 C 58.373 400.400,58.354 415.443,57.300 416.243 C 56.872 416.568,56.795 416.780,57.100 416.787 C 57.462 416.796,57.600 417.793,57.600 420.400 C 57.600 422.533,57.763 424.000,58.000 424.000 C 58.484 424.000,58.538 425.079,58.064 425.267 C 57.879 425.340,57.875 427.020,58.054 429.000 C 58.233 430.980,58.579 434.850,58.822 437.600 C 59.065 440.350,59.429 443.578,59.632 444.773 C 59.834 445.969,60.000 447.634,60.000 448.473 C 60.000 449.313,60.162 450.000,60.361 450.000 C 60.559 450.000,60.846 451.125,60.999 452.500 C 61.247 454.743,61.500 456.485,62.809 465.000 C 63.167 467.332,63.518 469.079,64.377 472.800 C 65.034 475.648,66.400 484.090,66.400 485.300 C 66.400 485.905,66.601 486.400,66.847 486.400 C 67.096 486.400,67.201 486.753,67.084 487.200 C 66.969 487.639,67.008 488.081,67.170 488.182 C 67.333 488.282,67.684 489.947,67.950 491.882 C 68.217 493.817,68.593 496.120,68.787 497.000 C 68.980 497.880,69.368 499.950,69.649 501.600 C 69.930 503.250,70.392 505.050,70.677 505.600 C 70.962 506.150,71.196 507.037,71.198 507.572 C 71.199 508.106,71.374 509.096,71.587 509.772 C 71.800 510.447,72.364 512.620,72.841 514.600 C 73.318 516.580,73.850 518.381,74.022 518.602 C 74.194 518.823,74.908 520.758,75.609 522.902 C 76.309 525.046,77.000 526.800,77.144 526.800 C 77.287 526.800,77.647 527.385,77.943 528.100 C 79.351 531.500,80.048 532.810,80.985 533.821 C 81.543 534.424,82.000 535.099,82.000 535.321 C 82.000 535.544,83.305 536.956,84.900 538.459 C 88.953 542.278,89.181 542.459,89.615 542.191 C 89.827 542.060,90.000 542.115,90.000 542.313 C 90.000 543.439,96.723 544.015,99.645 543.139 C 101.141 542.691,109.093 535.000,108.060 535.000 C 107.962 535.000,108.831 532.908,110.386 529.400 C 111.701 526.435,112.947 521.915,113.777 517.100 C 113.920 516.275,114.183 515.600,114.362 515.600 C 114.541 515.600,114.804 514.655,114.946 513.500 C 115.088 512.345,115.391 510.410,115.620 509.200 C 116.177 506.258,116.758 502.644,117.068 500.200 C 117.208 499.100,117.470 498.102,117.651 497.983 C 117.832 497.863,118.163 496.513,118.386 494.983 C 118.610 493.452,119.160 490.220,119.609 487.800 C 120.058 485.380,120.534 482.680,120.666 481.800 C 120.799 480.920,121.074 479.989,121.276 479.732 C 121.676 479.224,123.578 470.350,123.592 468.929 C 123.596 468.449,123.846 467.811,124.147 467.510 C 124.447 467.210,124.797 466.342,124.924 465.582 C 125.162 464.163,125.633 461.967,126.381 458.800 C 126.615 457.810,126.923 456.370,127.067 455.600 C 127.210 454.830,127.542 453.840,127.805 453.400 C 128.067 452.960,128.508 451.520,128.784 450.200 C 129.060 448.880,129.431 447.350,129.608 446.800 C 129.786 446.250,130.163 444.675,130.448 443.300 C 130.732 441.925,131.088 440.800,131.239 440.800 C 131.390 440.800,131.626 440.305,131.763 439.700 C 132.439 436.720,134.196 430.576,134.423 430.400 C 134.565 430.290,134.778 429.750,134.896 429.200 C 135.375 426.977,137.712 419.387,137.975 419.200 C 138.129 419.090,138.669 417.650,139.175 416.000 C 140.758 410.830,140.985 410.208,141.398 409.906 C 141.664 409.712,141.665 409.608,141.400 409.600 C 141.133 409.592,141.133 409.490,141.400 409.294 C 141.620 409.132,142.236 407.650,142.769 406.000 C 143.302 404.350,143.972 402.550,144.257 402.000 C 144.956 400.651,145.936 398.185,146.642 396.000 C 146.962 395.010,147.660 393.300,148.194 392.200 C 148.727 391.100,149.568 389.120,150.062 387.800 C 150.555 386.480,151.193 385.200,151.480 384.956 C 151.766 384.712,152.000 384.311,152.000 384.067 C 152.000 383.385,157.464 371.677,158.005 371.200 C 158.130 371.090,158.925 369.560,159.771 367.800 C 160.618 366.040,161.441 364.510,161.600 364.400 C 161.760 364.290,162.493 363.030,163.230 361.600 C 163.966 360.170,164.770 358.792,165.017 358.539 C 165.264 358.285,165.991 357.033,166.633 355.757 C 167.275 354.481,168.172 353.033,168.626 352.540 C 169.081 352.046,169.874 350.823,170.389 349.821 C 170.904 348.820,171.477 348.000,171.663 348.000 C 171.848 348.000,172.000 347.826,172.000 347.613 C 172.000 347.099,177.538 339.103,179.026 337.468 C 179.260 337.211,179.620 336.706,179.826 336.347 C 180.353 335.428,182.793 332.415,184.100 331.070 C 184.705 330.448,185.200 329.806,185.200 329.644 C 185.200 329.482,185.740 328.832,186.400 328.200 C 187.060 327.568,187.600 326.876,187.600 326.664 C 187.600 326.451,188.309 325.669,189.177 324.927 C 190.044 324.185,190.866 323.223,191.004 322.789 C 191.141 322.355,191.512 322.000,191.827 322.000 C 192.142 322.000,192.400 321.843,192.400 321.651 C 192.400 321.062,203.408 310.309,207.603 306.800 C 208.786 305.810,210.229 304.550,210.809 304.000 C 211.390 303.450,212.660 302.467,213.632 301.815 C 214.604 301.163,216.015 300.038,216.767 299.315 C 217.518 298.592,218.358 298.000,218.633 298.000 C 218.907 298.000,219.642 297.460,220.265 296.800 C 220.888 296.140,221.545 295.600,221.725 295.600 C 221.906 295.600,222.643 295.150,223.364 294.600 C 224.086 294.050,224.864 293.600,225.095 293.600 C 225.326 293.600,225.603 293.370,225.711 293.089 C 225.818 292.808,226.852 292.063,228.008 291.434 C 229.164 290.805,230.445 289.955,230.855 289.545 C 231.265 289.135,231.825 288.794,232.100 288.787 C 233.638 288.746,234.904 286.400,233.389 286.400 C 233.054 286.400,232.918 286.158,233.054 285.803 C 233.510 284.615,230.930 284.765,230.000 285.981 C 229.890 286.125,228.630 286.840,227.200 287.569 C 225.770 288.298,224.330 289.122,224.000 289.399 C 223.670 289.677,222.770 290.217,222.000 290.600 C 221.230 290.984,219.301 292.175,217.714 293.249 C 216.126 294.322,214.686 295.203,214.514 295.207 C 214.341 295.211,213.776 295.661,213.258 296.207 C 212.740 296.753,212.127 297.200,211.896 297.200 C 211.665 297.200,210.886 297.650,210.164 298.200 C 209.443 298.750,208.651 299.200,208.403 299.200 C 208.155 299.200,208.064 299.380,208.200 299.600 C 208.336 299.820,208.281 300.000,208.079 300.000 C 207.717 300.000,205.584 301.558,203.600 303.270 C 203.050 303.745,202.010 304.484,201.290 304.912 C 200.569 305.341,199.798 306.031,199.576 306.446 C 199.354 306.861,198.937 307.200,198.650 307.200 C 198.363 307.200,197.477 307.875,196.680 308.700 C 195.884 309.525,194.513 310.740,193.635 311.400 C 192.756 312.060,192.029 312.825,192.019 313.100 C 192.008 313.375,191.775 313.603,191.500 313.606 C 191.225 313.609,188.236 316.444,184.858 319.906 C 181.481 323.368,178.013 326.920,177.154 327.800 C 176.294 328.680,175.593 329.604,175.595 329.853 C 175.598 330.101,174.970 330.786,174.200 331.373 C 173.430 331.960,172.800 332.652,172.800 332.910 C 172.800 333.168,172.203 333.924,171.474 334.590 C 170.744 335.255,169.740 336.475,169.241 337.300 C 168.743 338.125,168.182 338.800,167.994 338.800 C 167.807 338.800,167.552 339.115,167.428 339.500 C 167.304 339.885,166.591 340.864,165.843 341.676 C 165.096 342.488,164.558 343.225,164.648 343.314 C 164.737 343.404,164.178 344.148,163.405 344.967 C 162.632 345.786,161.997 346.669,161.993 346.928 C 161.989 347.188,161.539 347.824,160.993 348.342 C 160.447 348.860,160.000 349.500,160.000 349.764 C 160.000 350.028,159.415 350.891,158.700 351.683 C 157.383 353.141,156.766 354.045,155.629 356.182 C 155.283 356.832,154.769 357.615,154.487 357.923 C 154.205 358.231,153.612 359.192,153.170 360.058 C 152.728 360.925,152.059 361.949,151.683 362.335 C 151.308 362.721,150.306 364.423,149.458 366.118 C 148.610 367.813,147.787 369.200,147.629 369.200 C 147.471 369.200,146.761 370.492,146.051 372.070 C 145.341 373.649,144.537 375.134,144.263 375.370 C 143.989 375.607,143.241 376.970,142.600 378.400 C 141.959 379.830,141.111 381.372,140.717 381.826 C 140.323 382.280,140.000 382.859,140.000 383.114 C 140.000 383.368,139.640 384.217,139.200 385.000 C 138.760 385.783,138.400 386.624,138.400 386.868 C 138.400 387.112,138.157 387.512,137.860 387.756 C 137.563 388.000,136.905 389.280,136.397 390.600 C 135.890 391.920,135.323 393.171,135.138 393.380 C 134.952 393.589,134.800 394.069,134.800 394.447 C 134.800 394.824,134.609 395.197,134.376 395.275 C 133.977 395.408,132.006 399.790,132.002 400.553 C 132.001 400.747,131.597 401.557,131.104 402.353 C 130.611 403.149,129.719 405.224,129.121 406.966 C 128.524 408.707,127.821 410.263,127.559 410.425 C 127.298 410.587,127.188 410.993,127.316 411.327 C 127.446 411.663,127.293 412.032,126.975 412.154 C 126.659 412.276,126.400 412.743,126.400 413.193 C 126.400 413.643,126.220 414.368,126.000 414.805 C 125.780 415.242,125.420 415.958,125.200 416.395 C 124.980 416.832,124.800 417.552,124.800 417.995 C 124.800 418.438,124.639 418.800,124.441 418.800 C 124.244 418.800,123.534 420.465,122.864 422.500 C 122.194 424.535,121.292 426.921,120.861 427.802 C 120.429 428.683,119.614 430.998,119.049 432.948 C 118.484 434.897,117.869 436.697,117.683 436.946 C 117.496 437.196,117.133 438.120,116.875 439.000 C 115.121 444.990,114.713 446.278,114.371 446.905 C 113.963 447.655,113.233 449.854,112.416 452.800 C 112.141 453.790,111.755 455.013,111.558 455.519 C 111.361 456.024,111.200 456.864,111.200 457.385 C 111.200 457.907,111.012 458.396,110.782 458.473 C 110.552 458.549,109.811 460.769,109.134 463.406 C 108.458 466.043,107.771 468.290,107.607 468.400 C 107.444 468.510,107.208 469.140,107.083 469.800 C 106.957 470.460,106.467 472.440,105.994 474.200 C 105.520 475.960,104.952 478.299,104.730 479.399 C 104.509 480.498,104.187 481.488,104.016 481.599 C 103.712 481.795,103.001 484.482,101.742 490.199 C 101.403 491.739,100.994 493.089,100.832 493.199 C 100.541 493.398,99.882 496.017,98.567 502.200 C 98.192 503.960,97.766 505.490,97.620 505.600 C 97.395 505.770,96.387 510.069,95.385 515.133 C 95.049 516.837,93.828 515.821,93.511 513.573 C 93.404 512.818,93.021 510.760,92.660 509.000 C 92.298 507.240,91.803 504.810,91.559 503.600 C 91.316 502.390,90.955 501.040,90.757 500.600 C 90.355 499.705,89.015 492.341,88.337 487.300 C 88.093 485.485,87.760 484.000,87.596 484.000 C 87.433 484.000,87.198 483.055,87.075 481.900 C 86.952 480.745,86.655 478.450,86.415 476.800 C 86.175 475.150,85.805 472.011,85.592 469.825 C 85.379 467.639,85.069 465.749,84.902 465.625 C 84.736 465.501,84.555 463.510,84.500 461.200 C 84.444 458.849,84.224 456.941,84.000 456.867 C 83.780 456.793,83.600 455.488,83.600 453.967 C 83.600 452.023,83.451 451.198,83.100 451.194 C 82.765 451.190,82.741 451.091,83.028 450.894 C 83.316 450.697,83.358 449.547,83.157 447.400 C 82.992 445.640,82.844 442.794,82.828 441.076 C 82.810 439.102,82.653 438.044,82.400 438.200 C 81.959 438.473,81.819 433.514,82.256 433.077 C 82.620 432.714,82.663 417.601,82.300 417.600 C 82.135 417.600,82.000 416.430,82.000 415.000 C 82.000 413.570,82.153 412.400,82.341 412.400 C 82.528 412.400,82.795 410.375,82.935 407.900 C 83.485 398.131,83.720 395.383,84.039 394.976 C 84.222 394.743,84.554 392.763,84.778 390.576 C 85.198 386.464,85.702 382.747,86.402 378.600 C 86.625 377.280,86.922 375.390,87.061 374.400 C 87.201 373.410,87.474 372.497,87.667 372.371 C 87.861 372.244,88.194 371.164,88.408 369.971 C 88.623 368.777,88.978 367.035,89.199 366.100 C 89.420 365.165,89.763 363.641,89.962 362.713 C 90.162 361.784,90.522 360.959,90.762 360.879 C 91.003 360.799,91.200 360.356,91.200 359.895 C 91.200 359.434,91.376 358.504,91.591 357.828 C 93.053 353.238,93.760 351.324,94.186 350.800 C 94.699 350.169,97.206 344.056,97.202 343.444 C 97.201 343.248,97.444 342.888,97.743 342.644 C 98.042 342.400,98.779 340.940,99.382 339.400 C 99.984 337.860,100.622 336.510,100.799 336.400 C 100.977 336.290,101.789 334.220,102.604 331.800 C 103.419 329.380,104.216 327.220,104.376 327.000 C 105.316 325.703,106.827 315.289,106.000 315.800 C 105.752 315.953,105.600 315.215,105.600 313.857 C 105.600 312.652,105.789 311.604,106.020 311.527 C 106.681 311.306,105.028 298.000,104.339 298.000 C 104.172 298.000,103.924 297.325,103.788 296.500 C 103.651 295.675,103.394 294.550,103.216 294.000 C 103.038 293.450,102.668 292.190,102.394 291.200 C 102.120 290.210,101.494 288.500,101.004 287.400 C 100.513 286.300,99.885 284.770,99.609 284.000 C 98.803 281.755,97.974 279.990,96.747 277.910 C 96.116 276.840,95.600 275.789,95.600 275.574 C 95.600 275.360,95.119 274.423,94.532 273.492 C 93.944 272.561,92.925 270.810,92.266 269.600 C 91.607 268.390,90.925 267.304,90.750 267.186 C 90.575 267.069,89.861 265.899,89.164 264.586 C 88.466 263.274,87.783 262.110,87.645 262.000 C 87.099 261.562,85.200 258.830,85.200 258.481 C 85.200 258.277,84.723 257.632,84.139 257.048 C 83.556 256.465,82.868 255.586,82.610 255.094 C 81.669 253.298,80.973 252.304,79.700 250.938 C 78.985 250.171,78.400 249.307,78.400 249.018 C 78.400 248.728,77.977 248.215,77.460 247.876 C 76.943 247.537,76.217 246.623,75.848 245.844 C 75.478 245.066,74.850 244.197,74.451 243.914 C 74.053 243.631,73.504 242.981,73.232 242.468 C 72.961 241.956,72.491 241.236,72.190 240.868 C 68.901 236.856,68.000 235.651,68.000 235.260 C 68.000 235.007,67.822 234.800,67.604 234.800 C 67.386 234.800,66.559 233.823,65.766 232.628 C 64.973 231.434,64.085 230.365,63.792 230.252 C 63.500 230.140,62.950 229.394,62.570 228.594 C 62.191 227.794,61.457 226.863,60.940 226.524 C 60.423 226.185,60.000 225.736,60.000 225.526 C 60.000 225.316,59.460 224.359,58.800 223.400 C 58.140 222.441,57.600 221.572,57.600 221.470 C 57.600 221.368,57.060 220.707,56.400 220.000 C 55.740 219.293,55.200 218.508,55.200 218.254 C 55.200 218.000,54.750 217.307,54.200 216.713 C 53.650 216.120,53.200 215.477,53.200 215.284 C 53.200 215.091,52.447 213.868,51.528 212.566 C 50.608 211.265,49.449 209.369,48.953 208.353 C 48.456 207.338,47.811 206.258,47.520 205.953 C 47.229 205.649,46.381 204.185,45.636 202.700 C 44.890 201.215,44.108 200.000,43.897 200.000 C 43.687 200.000,43.618 199.730,43.745 199.400 C 43.871 199.070,43.827 198.800,43.647 198.800 C 43.466 198.800,42.738 197.540,42.028 196.000 C 41.318 194.460,40.571 193.200,40.369 193.200 C 40.166 193.200,40.000 192.970,40.000 192.690 C 40.000 192.409,39.466 191.104,38.813 189.790 C 38.159 188.475,37.619 187.169,37.613 186.887 C 37.606 186.606,37.330 186.271,37.000 186.145 C 36.670 186.018,36.400 185.668,36.400 185.368 C 36.400 185.067,36.014 183.962,35.541 182.911 C 35.069 181.860,34.485 180.550,34.242 180.000 C 34.000 179.450,33.702 178.910,33.580 178.800 C 33.458 178.690,33.039 177.700,32.648 176.600 C 32.258 175.500,31.783 174.240,31.594 173.800 C 31.405 173.360,31.137 172.595,30.998 172.100 C 30.860 171.605,30.578 171.200,30.373 171.200 C 30.168 171.200,30.000 170.928,30.000 170.595 C 30.000 170.262,29.844 169.677,29.653 169.295 C 29.074 168.138,27.907 164.671,27.702 163.500 C 27.596 162.895,27.350 162.400,27.155 162.400 C 26.960 162.400,26.829 162.265,26.865 162.100 C 26.900 161.935,26.699 161.260,26.417 160.600 C 25.853 159.276,25.323 157.433,24.811 155.013 C 24.627 154.139,24.305 153.368,24.096 153.299 C 23.887 153.229,23.792 152.773,23.884 152.286 C 23.979 151.787,23.735 151.051,23.326 150.600 C 22.927 150.160,22.580 149.260,22.555 148.600 C 22.530 147.940,22.304 146.500,22.053 145.400 C 21.801 144.300,21.397 142.365,21.155 141.100 C 20.887 139.699,20.510 138.800,20.192 138.800 C 19.774 138.800,19.763 138.547,20.135 137.537 C 20.499 136.550,20.491 136.238,20.100 136.104 C 19.825 136.010,19.600 135.528,19.600 135.033 C 19.600 134.538,19.498 134.031,19.374 133.907 C 19.249 133.782,19.086 132.559,19.012 131.188 C 18.938 129.817,18.725 128.583,18.539 128.447 C 18.352 128.311,18.152 125.770,18.094 122.800 C 18.034 119.706,17.820 117.343,17.594 117.267 C 17.074 117.091,17.076 109.708,17.596 109.533 C 17.817 109.459,18.038 107.453,18.096 105.000 C 18.153 102.580,18.330 100.502,18.490 100.383 C 18.649 100.263,18.968 98.837,19.198 97.214 C 19.428 95.590,19.761 94.068,19.936 93.831 C 20.549 93.005,21.307 90.055,21.067 89.430 C 20.934 89.083,20.984 88.800,21.179 88.800 C 21.374 88.800,21.923 87.540,22.400 86.000 C 22.877 84.460,23.388 83.200,23.536 83.200 C 23.684 83.200,24.044 82.615,24.337 81.900 C 25.377 79.358,26.603 76.994,27.085 76.600 C 27.354 76.380,27.834 75.570,28.152 74.800 C 28.469 74.030,29.280 72.860,29.954 72.200 C 30.627 71.540,31.183 70.794,31.189 70.541 C 31.195 70.289,31.830 69.530,32.600 68.854 C 33.370 68.178,34.000 67.474,34.000 67.291 C 34.000 66.783,36.571 64.400,37.119 64.400 C 37.384 64.400,37.600 64.217,37.600 63.994 C 37.600 63.447,40.074 61.226,40.700 61.212 C 40.975 61.205,41.200 61.023,41.200 60.806 C 41.200 60.589,41.965 59.914,42.900 59.306 C 43.835 58.698,44.926 57.906,45.325 57.547 C 45.723 57.188,47.253 56.290,48.725 55.552 C 50.196 54.813,51.606 54.013,51.859 53.774 C 52.111 53.535,53.821 52.832,55.659 52.211 C 57.496 51.590,59.115 50.905,59.255 50.690 C 59.396 50.474,59.698 50.414,59.928 50.555 C 60.157 50.697,60.445 50.651,60.568 50.452 C 60.691 50.253,61.423 49.972,62.196 49.827 C 62.968 49.682,63.600 49.381,63.600 49.158 C 63.600 48.935,63.769 48.857,63.975 48.984 C 64.682 49.421,72.027 47.847,71.818 47.303 C 71.590 46.708,72.242 46.621,72.600 47.200 C 72.736 47.420,73.377 47.600,74.024 47.600 C 74.671 47.600,75.200 47.420,75.200 47.200 C 75.200 46.980,75.920 46.800,76.800 46.800 C 77.680 46.800,78.402 46.665,78.403 46.500 C 78.405 46.335,80.790 46.142,83.703 46.071 C 86.617 46.001,89.060 45.776,89.133 45.571 C 89.209 45.360,92.626 45.200,97.057 45.200 C 101.487 45.200,104.753 45.353,104.628 45.555 C 104.302 46.082,112.855 46.337,113.712 45.825 C 114.247 45.506,114.511 45.540,114.774 45.961 C 115.041 46.391,115.691 46.463,117.561 46.267 C 119.068 46.110,120.000 46.163,120.000 46.406 C 120.000 46.624,121.160 46.800,122.600 46.800 C 124.030 46.800,125.200 46.957,125.200 47.148 C 125.200 47.340,126.370 47.522,127.800 47.553 C 129.324 47.586,130.400 47.442,130.400 47.205 C 130.400 46.982,130.754 46.800,131.187 46.800 C 131.701 46.800,131.900 46.996,131.758 47.365 C 131.495 48.049,136.806 48.469,137.294 47.802 C 137.471 47.559,137.590 47.620,137.594 47.955 C 137.599 48.392,138.151 48.465,140.195 48.301 C 141.622 48.187,142.704 48.232,142.598 48.403 C 142.493 48.573,143.800 48.787,145.503 48.877 C 147.206 48.968,148.663 48.890,148.739 48.704 C 148.815 48.518,149.133 48.579,149.446 48.838 C 149.833 49.159,150.849 49.224,152.639 49.040 C 154.235 48.877,155.175 48.918,155.034 49.145 C 154.901 49.361,156.275 49.582,158.302 49.671 C 160.226 49.754,161.860 49.683,161.933 49.512 C 162.007 49.340,162.602 49.200,163.257 49.200 C 163.912 49.200,164.364 49.335,164.262 49.500 C 164.160 49.665,175.129 49.800,188.638 49.800 C 202.147 49.800,213.200 49.665,213.200 49.500 C 213.200 49.335,213.661 49.200,214.224 49.200 C 214.787 49.200,215.143 49.369,215.016 49.575 C 214.763 49.983,222.057 49.653,222.400 49.240 C 222.510 49.108,223.860 48.992,225.400 48.981 C 228.732 48.959,239.200 47.591,239.200 47.178 C 239.200 47.019,239.875 46.771,240.700 46.626 C 244.147 46.023,250.800 44.252,250.800 43.939 C 250.800 43.752,251.046 43.600,251.347 43.600 C 252.776 43.600,262.917 38.862,264.403 37.500 C 264.823 37.115,265.343 36.800,265.560 36.800 C 266.637 36.800,266.216 35.985,264.742 35.217 L 263.086 34.353 260.843 35.222 C 257.354 36.574,256.054 37.188,255.793 37.611 C 255.661 37.825,255.126 38.000,254.605 38.000 C 254.084 38.000,253.419 38.225,253.129 38.500 C 252.838 38.775,252.075 39.038,251.433 39.084 C 250.791 39.131,250.161 39.311,250.033 39.484 C 249.905 39.658,249.190 39.829,248.445 39.865 C 247.700 39.901,246.980 40.099,246.845 40.305 C 246.710 40.512,246.150 40.778,245.600 40.896 C 240.345 42.028,235.805 42.872,233.900 43.072 C 232.635 43.205,231.600 43.468,231.600 43.657 C 231.600 43.846,230.970 44.000,230.200 44.000 C 229.430 44.000,228.799 44.135,228.798 44.300 C 228.797 44.465,226.682 44.651,224.098 44.714 C 221.514 44.777,219.342 44.996,219.272 45.200 C 219.197 45.414,217.801 45.467,215.972 45.326 C 213.709 45.152,212.800 45.213,212.800 45.541 C 212.800 45.857,211.495 46.000,208.600 46.000 C 205.702 46.000,204.400 45.857,204.400 45.540 C 204.400 45.208,203.382 45.152,200.741 45.340 C 198.644 45.489,196.890 45.441,196.633 45.227 C 196.386 45.022,193.894 44.797,191.095 44.727 C 188.297 44.657,186.006 44.465,186.004 44.300 C 186.002 44.135,184.920 44.000,183.600 44.000 C 182.267 44.000,181.200 43.822,181.200 43.600 C 181.200 43.078,178.122 43.078,177.800 43.600 C 177.422 44.211,176.395 44.078,176.636 43.449 C 176.859 42.869,171.254 42.072,170.449 42.570 C 170.240 42.699,170.008 42.630,169.934 42.415 C 169.860 42.201,168.317 41.975,166.504 41.913 C 164.691 41.851,163.206 41.688,163.204 41.552 C 163.202 41.415,161.895 41.175,160.300 41.018 C 158.705 40.860,157.220 40.595,157.000 40.427 C 156.424 39.988,146.136 38.662,145.424 38.935 C 145.095 39.062,144.732 39.013,144.617 38.828 C 144.503 38.643,142.562 38.260,140.305 37.977 C 138.047 37.694,136.110 37.345,136.000 37.201 C 135.708 36.819,120.929 35.073,120.013 35.312 C 119.587 35.424,119.185 35.364,119.119 35.178 C 119.054 34.993,117.380 34.787,115.400 34.721 C 113.420 34.654,111.710 34.487,111.600 34.350 C 111.302 33.977,106.023 33.713,106.251 34.083 C 106.359 34.257,106.172 34.400,105.836 34.400 C 105.457 34.400,105.313 34.172,105.455 33.800 C 105.726 33.094,102.231 32.903,101.800 33.600 C 101.402 34.244,99.600 34.080,99.600 33.400 C 99.600 32.750,76.855 32.451,76.753 33.100 M235.476 410.700 C 235.375 411.085,235.293 410.770,235.293 410.000 C 235.293 409.230,235.375 408.915,235.476 409.300 C 235.576 409.685,235.576 410.315,235.476 410.700 " stroke="none" fill="#0cccf4" fill-rule="evenodd"></path><path id="path1" d="M294.800 8.000 C 294.800 8.220,295.520 8.400,296.400 8.400 C 297.280 8.400,298.000 8.220,298.000 8.000 C 298.000 7.780,297.280 7.600,296.400 7.600 C 295.520 7.600,294.800 7.780,294.800 8.000 M187.277 29.075 C 185.688 30.462,186.291 32.326,187.992 31.286 C 188.454 31.004,189.013 30.884,189.234 31.021 C 189.689 31.302,190.800 30.509,190.800 29.902 C 190.800 29.682,190.526 29.729,190.190 30.008 C 189.855 30.286,189.465 30.398,189.324 30.257 C 189.182 30.116,189.260 30.000,189.496 30.000 C 189.732 30.000,189.831 29.642,189.717 29.204 C 189.603 28.767,189.365 28.498,189.189 28.607 C 189.012 28.716,188.803 28.610,188.724 28.372 C 188.644 28.133,187.993 28.450,187.277 29.075 M267.604 32.196 C 267.332 32.523,266.970 32.705,266.800 32.600 C 266.630 32.495,266.283 32.659,266.029 32.966 C 265.676 33.390,265.687 33.562,266.073 33.691 C 266.353 33.784,266.181 33.964,265.689 34.093 C 265.200 34.221,264.900 34.162,265.023 33.963 C 265.312 33.496,264.767 33.507,264.014 33.983 C 263.380 34.384,264.913 35.233,266.646 35.442 C 267.881 35.591,269.376 33.477,268.799 32.398 C 268.287 31.442,268.236 31.434,267.604 32.196 M89.600 45.600 C 89.600 45.820,90.230 46.000,91.000 46.000 C 91.770 46.000,92.400 45.820,92.400 45.600 C 92.400 45.380,91.770 45.200,91.000 45.200 C 90.230 45.200,89.600 45.380,89.600 45.600 M100.400 45.600 C 100.400 45.820,101.300 46.000,102.400 46.000 C 103.500 46.000,104.400 45.820,104.400 45.600 C 104.400 45.380,103.500 45.200,102.400 45.200 C 101.300 45.200,100.400 45.380,100.400 45.600 M204.800 45.600 C 204.800 45.839,206.333 46.000,208.600 46.000 C 210.867 46.000,212.400 45.839,212.400 45.600 C 212.400 45.361,210.867 45.200,208.600 45.200 C 206.333 45.200,204.800 45.361,204.800 45.600 M162.000 49.600 C 162.000 49.820,162.360 50.000,162.800 50.000 C 163.240 50.000,163.600 49.820,163.600 49.600 C 163.600 49.380,163.240 49.200,162.800 49.200 C 162.360 49.200,162.000 49.380,162.000 49.600 M179.727 50.300 C 184.527 50.364,192.267 50.363,196.927 50.299 C 201.587 50.236,197.660 50.183,188.200 50.183 C 178.740 50.183,174.927 50.236,179.727 50.300 M238.230 282.500 C 237.863 282.995,237.691 283.144,237.847 282.832 C 238.057 282.412,237.949 282.334,237.433 282.532 C 237.049 282.679,236.649 282.800,236.544 282.800 C 236.439 282.800,236.456 282.968,236.583 283.172 C 236.709 283.377,236.602 283.675,236.345 283.834 C 236.052 284.015,235.984 283.950,236.162 283.662 C 236.533 283.061,236.395 283.077,234.549 283.842 C 232.531 284.679,232.571 284.588,233.685 285.790 C 234.614 286.791,236.345 286.881,235.736 285.896 C 235.592 285.664,235.666 285.594,235.902 285.739 C 236.446 286.076,237.662 285.623,237.391 285.186 C 237.279 285.004,237.370 284.742,237.593 284.604 C 237.817 284.466,238.006 284.588,238.013 284.876 C 238.022 285.250,238.165 285.219,238.513 284.765 C 238.781 284.416,239.398 283.919,239.885 283.659 C 240.421 283.374,240.681 282.954,240.543 282.596 C 240.418 282.271,240.155 282.104,239.958 282.226 C 239.761 282.348,239.600 282.257,239.600 282.024 C 239.600 281.317,238.937 281.547,238.230 282.500 M105.600 313.600 C 105.600 314.700,105.780 315.600,106.000 315.600 C 106.220 315.600,106.400 314.700,106.400 313.600 C 106.400 312.500,106.220 311.600,106.000 311.600 C 105.780 311.600,105.600 312.500,105.600 313.600 M308.893 320.800 C 308.893 321.570,308.975 321.885,309.076 321.500 C 309.176 321.115,309.176 320.485,309.076 320.100 C 308.975 319.715,308.893 320.030,308.893 320.800 M202.210 323.984 C 202.080 324.195,202.197 324.726,202.470 325.163 C 203.083 326.145,204.019 325.558,203.712 324.385 C 203.497 323.562,202.616 323.327,202.210 323.984 M308.249 335.930 C 308.072 336.442,308.033 336.967,308.163 337.097 C 308.578 337.511,308.870 336.900,308.718 335.934 L 308.571 335.000 308.249 335.930 M307.867 351.867 C 307.440 352.294,307.559 356.000,308.000 356.000 C 308.220 356.000,308.400 355.010,308.400 353.800 C 308.400 351.575,308.348 351.386,307.867 351.867 M57.304 408.200 C 57.301 413.428,57.411 415.576,57.620 414.400 C 58.027 412.113,58.026 404.818,57.618 402.200 C 57.413 400.881,57.306 402.925,57.304 408.200 M82.000 415.000 C 82.000 416.210,82.180 417.200,82.400 417.200 C 82.620 417.200,82.800 416.210,82.800 415.000 C 82.800 413.790,82.620 412.800,82.400 412.800 C 82.180 412.800,82.000 413.790,82.000 415.000 M235.334 421.600 C 235.334 423.250,235.405 423.925,235.491 423.100 C 235.578 422.275,235.578 420.925,235.491 420.100 C 235.405 419.275,235.334 419.950,235.334 421.600 M244.000 422.400 C 244.000 422.840,244.180 423.200,244.400 423.200 C 244.620 423.200,244.800 422.840,244.800 422.400 C 244.800 421.960,244.620 421.600,244.400 421.600 C 244.180 421.600,244.000 421.960,244.000 422.400 M82.000 435.600 C 82.000 436.933,82.178 438.000,82.400 438.000 C 82.622 438.000,82.800 436.933,82.800 435.600 C 82.800 434.267,82.622 433.200,82.400 433.200 C 82.178 433.200,82.000 434.267,82.000 435.600 M235.331 437.000 C 235.333 438.540,235.405 439.121,235.492 438.291 C 235.579 437.461,235.577 436.201,235.489 435.491 C 235.400 434.781,235.329 435.460,235.331 437.000 M232.400 552.624 C 232.400 553.204,232.573 553.540,232.800 553.400 C 233.020 553.264,233.200 552.803,233.200 552.376 C 233.200 551.949,233.020 551.600,232.800 551.600 C 232.580 551.600,232.400 552.061,232.400 552.624 M216.400 561.200 C 216.400 562.300,216.580 563.200,216.800 563.200 C 217.020 563.200,217.200 562.300,217.200 561.200 C 217.200 560.100,217.020 559.200,216.800 559.200 C 216.580 559.200,216.400 560.100,216.400 561.200 " stroke="none" fill="#040404" fill-rule="evenodd"></path><path id="path2" d="M233.077 285.743 C 232.940 286.100,233.160 286.401,233.651 286.529 C 234.339 286.709,234.377 286.647,233.936 286.069 C 233.656 285.701,233.398 285.347,233.363 285.283 C 233.328 285.218,233.199 285.426,233.077 285.743 M203.709 324.791 C 203.743 325.236,203.912 325.600,204.085 325.600 C 204.527 325.600,204.479 324.496,204.024 324.215 C 203.818 324.087,203.676 324.347,203.709 324.791 " stroke="none" fill="#0ca4c4" fill-rule="evenodd"></path><path id="path3" d="M268.705 10.283 C 269.202 10.379,269.922 10.375,270.305 10.275 C 270.687 10.175,270.280 10.096,269.400 10.101 C 268.520 10.105,268.207 10.187,268.705 10.283 M332.800 350.224 C 332.800 351.007,332.950 351.555,333.133 351.441 C 333.449 351.246,333.283 348.800,332.955 348.800 C 332.870 348.800,332.800 349.441,332.800 350.224 M332.931 359.800 C 332.933 361.340,333.005 361.921,333.092 361.091 C 333.179 360.261,333.177 359.001,333.089 358.291 C 333.000 357.581,332.929 358.260,332.931 359.800 M235.293 410.000 C 235.293 410.770,235.375 411.085,235.476 410.700 C 235.576 410.315,235.576 409.685,235.476 409.300 C 235.375 408.915,235.293 409.230,235.293 410.000 M235.301 525.800 C 235.305 526.680,235.387 526.993,235.483 526.495 C 235.579 525.998,235.575 525.278,235.475 524.895 C 235.375 524.513,235.296 524.920,235.301 525.800 " stroke="none" fill="#08bcf8" fill-rule="evenodd"></path><path id="path4" d="M268.705 10.283 C 269.202 10.379,269.922 10.375,270.305 10.275 C 270.687 10.175,270.280 10.096,269.400 10.101 C 268.520 10.105,268.207 10.187,268.705 10.283 M332.800 350.224 C 332.800 351.007,332.950 351.555,333.133 351.441 C 333.449 351.246,333.283 348.800,332.955 348.800 C 332.870 348.800,332.800 349.441,332.800 350.224 M332.931 359.800 C 332.933 361.340,333.005 361.921,333.092 361.091 C 333.179 360.261,333.177 359.001,333.089 358.291 C 333.000 357.581,332.929 358.260,332.931 359.800 M235.293 410.000 C 235.293 410.770,235.375 411.085,235.476 410.700 C 235.576 410.315,235.576 409.685,235.476 409.300 C 235.375 408.915,235.293 409.230,235.293 410.000 M235.301 525.800 C 235.305 526.680,235.387 526.993,235.483 526.495 C 235.579 525.998,235.575 525.278,235.475 524.895 C 235.375 524.513,235.296 524.920,235.301 525.800 " stroke="none" fill="#08bcf8" fill-rule="evenodd"></path></g></svg>